<svg width="18" height="18" viewBox="0 0 18 18" fill="none" xmlns="http://www.w3.org/2000/svg">
<path d="M4.2 17.3996C4.1118 17.3996 4.023 17.3798 3.9396 17.3402C3.7326 17.24 3.6 17.0306 3.6 16.7996V13.7996H1.8C0.8076 13.7996 0 12.992 0 11.9996V2.39961C0 1.40721 0.8076 0.599609 1.8 0.599609H16.2C17.1924 0.599609 18 1.40721 18 2.39961V11.9996C18 12.992 17.1924 13.7996 16.2 13.7996H8.9106L4.575 17.2682C4.4664 17.3552 4.3338 17.3996 4.2 17.3996ZM1.8 1.79961C1.4688 1.79961 1.2 2.06901 1.2 2.39961V11.9996C1.2 12.3302 1.4688 12.5996 1.8 12.5996H4.2C4.5318 12.5996 4.8 12.8678 4.8 13.1996V15.5516L8.325 12.731C8.4318 12.6458 8.5632 12.5996 8.7 12.5996H16.2C16.5312 12.5996 16.8 12.3302 16.8 11.9996V2.39961C16.8 2.06901 16.5312 1.79961 16.2 1.79961H1.8Z" fill="#F8F9FA"/>
<path d="M13.8 6.59961H4.2C3.8682 6.59961 3.6 6.33081 3.6 5.99961C3.6 5.66841 3.8682 5.39961 4.2 5.39961H13.8C14.1318 5.39961 14.4 5.66841 14.4 5.99961C14.4 6.33081 14.1318 6.59961 13.8 6.59961Z" fill="#F8F9FA"/>
<path d="M9 8.99961H4.2C3.8682 8.99961 3.6 8.73081 3.6 8.39961C3.6 8.06841 3.8682 7.79961 4.2 7.79961H9C9.3318 7.79961 9.6 8.06841 9.6 8.39961C9.6 8.73081 9.3318 8.99961 9 8.99961Z" fill="#F8F9FA"/>
</svg>
