<svg width="18" height="17" viewBox="0 0 18 17" fill="none" xmlns="http://www.w3.org/2000/svg">
<path fill-rule="evenodd" clip-rule="evenodd" d="M15.0698 1.31598V4.60019C15.0698 4.94011 15.3511 5.21598 15.6977 5.21598C16.0443 5.21598 16.3256 4.94011 16.3256 4.60019V1.31598C16.3256 0.976069 16.0443 0.700195 15.6977 0.700195C15.3511 0.700195 15.0698 0.976069 15.0698 1.31598Z" fill="#F8F9FA"/>
<path fill-rule="evenodd" clip-rule="evenodd" d="M14.0233 3.57388H17.3721C17.7187 3.57388 18 3.29801 18 2.95809C18 2.61817 17.7187 2.3423 17.3721 2.3423H14.0233C13.6767 2.3423 13.3953 2.61817 13.3953 2.95809C13.3953 3.29801 13.6767 3.57388 14.0233 3.57388Z" fill="#F8F9FA"/>
<path fill-rule="evenodd" clip-rule="evenodd" d="M10.6744 1.11072H6.58716C6.03209 1.11072 5.52474 1.41862 5.27693 1.90468L4.48409 3.46057C4.44809 3.52954 4.37609 3.57388 4.29656 3.57388H2.30233C1.0306 3.57388 0 4.58459 0 5.83177V14.0423C0 14.6408 0.242791 15.2156 0.673954 15.6392C1.10595 16.0621 1.692 16.3002 2.30233 16.3002H15.6977C16.308 16.3002 16.894 16.0621 17.326 15.6392C17.7572 15.2156 18 14.6408 18 14.0423C18 11.5406 18 7.06335 18 7.06335C18 6.72344 17.7187 6.44756 17.3721 6.44756C17.0255 6.44756 16.7442 6.72344 16.7442 7.06335V14.0423C16.7442 14.3149 16.6337 14.5752 16.4378 14.7681C16.241 14.9602 15.9756 15.0686 15.6977 15.0686H2.30233C2.02437 15.0686 1.75898 14.9602 1.56223 14.7681C1.36633 14.5752 1.25581 14.3149 1.25581 14.0423V5.83177C1.25581 5.26525 1.72465 4.80546 2.30233 4.80546H4.29656C4.85163 4.80546 5.35898 4.49756 5.60679 4.0115L6.39963 2.45561C6.43563 2.38664 6.50763 2.3423 6.58716 2.3423H10.6744C11.021 2.3423 11.3023 2.06643 11.3023 1.72651C11.3023 1.3866 11.021 1.11072 10.6744 1.11072Z" fill="#F8F9FA"/>
<path fill-rule="evenodd" clip-rule="evenodd" d="M9 5.62651C6.80484 5.62651 5.02326 7.37371 5.02326 9.52651C5.02326 11.6793 6.80484 13.4265 9 13.4265C11.1952 13.4265 12.9767 11.6793 12.9767 9.52651C12.9767 7.37371 11.1952 5.62651 9 5.62651ZM9 6.85809C10.502 6.85809 11.7209 8.05354 11.7209 9.52651C11.7209 10.9995 10.502 12.1949 9 12.1949C7.49805 12.1949 6.27907 10.9995 6.27907 9.52651C6.27907 8.05354 7.49805 6.85809 9 6.85809Z" fill="#F8F9FA"/>
</svg>
