<svg width="18" height="15" viewBox="0 0 18 15" fill="none" xmlns="http://www.w3.org/2000/svg">
<path d="M16.003 0.494028C15.7459 0.23323 15.3271 0.236903 15.0663 0.494028L12.7155 2.84488C9.8026 1.52253 6.69506 1.84577 3.73078 3.78155C1.52318 5.22145 0.182454 7.03235 0.127355 7.10948C-0.0489588 7.35192 -0.0416124 7.68251 0.145721 7.91759C1.40196 9.46034 2.71697 10.6615 4.06137 11.499L1.99335 13.567C1.73622 13.8241 1.73622 14.2429 1.99335 14.5037C2.12191 14.6322 2.29088 14.6983 2.45985 14.6983C2.62881 14.6983 2.79778 14.6322 2.92634 14.5037L16.003 1.4307C16.2601 1.17357 16.2601 0.754826 16.003 0.494028ZM7.36358 8.19675C7.26808 7.98003 7.22033 7.74495 7.22033 7.49884C7.22033 7.025 7.40399 6.57687 7.74192 6.23893C8.27087 5.70999 9.05326 5.5851 9.69975 5.86059L7.36358 8.19675ZM10.6768 4.88719C9.47568 4.11582 7.85579 4.2554 6.80893 5.30226C6.22122 5.88998 5.90165 6.6687 5.90165 7.49517C5.90165 8.09758 6.07429 8.67427 6.39386 9.17016L5.03109 10.5329C3.8373 9.84235 2.66187 8.8212 1.5195 7.48782C2.00804 6.9148 3.04021 5.80917 4.4544 4.88719C6.90076 3.29302 9.3361 2.94773 11.709 3.85502L10.6768 4.88719Z" fill="#F8F9FA"/>
<path d="M17.8543 7.0801C16.947 5.96344 16.0067 5.0231 15.0516 4.27744C14.7614 4.05337 14.3464 4.1048 14.1186 4.39131C13.8946 4.67782 13.946 5.09289 14.2325 5.32063C14.9892 5.91202 15.7459 6.64666 16.4805 7.50619C16.0471 8.01309 15.2022 8.92405 14.0562 9.75787C11.8486 11.3631 9.61894 11.9434 7.43338 11.4806C7.07707 11.4035 6.72445 11.6349 6.65098 11.9912C6.57384 12.3475 6.80526 12.7001 7.16156 12.7736C7.73091 12.8948 8.30393 12.9536 8.88062 12.9536C9.7475 12.9536 10.6217 12.8177 11.4923 12.5458C12.6346 12.1895 13.7697 11.6018 14.868 10.8011C16.7193 9.44565 17.8249 7.95065 17.8726 7.8882C18.049 7.64577 18.0416 7.31518 17.8543 7.0801Z" fill="#F8F9FA"/>
</svg>
