<svg width="227" height="46" viewBox="0 0 227 46" fill="none" xmlns="http://www.w3.org/2000/svg">
<path d="M22.7583 1.84987L22.8282 1.79395L22.7583 1.84987Z" fill="#7CCCC9"/>
<path d="M41.991 43.6524L41.9509 43.6123L41.991 43.6524Z" fill="#4FA1CA"/>
<path d="M53.6306 43.4443C53.5888 43.5001 53.5331 43.5418 53.4913 43.5976C53.5471 43.5558 53.5888 43.5001 53.6306 43.4443Z" fill="#4FA1CA"/>
<path d="M53.8675 43.1963L53.782 43.296L53.8675 43.1963Z" fill="#4FA1CA"/>
<path d="M41.7458 43.4058C41.7173 43.3773 41.6888 43.3488 41.6603 43.3203C41.6888 43.3346 41.7173 43.3631 41.7458 43.4058Z" fill="#4FA1CA"/>
<path d="M52.2461 44.6204C52.5505 44.4129 52.8411 44.1915 53.1178 43.9424C51.6649 45.2154 49.8107 45.935 47.8734 45.9765C49.437 45.9488 50.9592 45.4783 52.2461 44.6204Z" fill="#4FA1CA"/>
<path d="M53.3832 43.708C53.3132 43.7781 53.2431 43.8342 53.187 43.9042C53.2571 43.8342 53.3272 43.7641 53.3832 43.708Z" fill="#4FA1CA"/>
<path d="M41.5089 43.1444C41.4671 43.0887 41.4253 43.0469 41.3835 42.9912C41.4253 43.033 41.4671 43.0887 41.5089 43.1444Z" fill="#4FA1CA"/>
<path d="M22.6891 1.90651C22.717 1.89253 22.745 1.86457 22.759 1.85059L22.6891 1.90651Z" fill="#4FA1CA"/>
<path d="M54.0845 42.9463L54.0587 42.9721L54.0845 42.9463Z" fill="#4FA1CA"/>
<path d="M32.4583 1.3798C29.4971 -0.585121 25.6088 -0.419071 22.8274 1.79493L22.7582 1.85028C22.7306 1.86412 22.7029 1.89179 22.6891 1.90563C19.5203 4.5901 18.8561 9.22567 21.1531 12.6989L27.9473 22.8971L34.7277 12.7127C37.2184 8.96275 36.2083 3.89823 32.4583 1.3798Z" fill="#5AC0FF"/>
<path d="M53.783 43.292C53.7273 43.3477 53.6855 43.4034 53.6298 43.4452L53.783 43.292Z" fill="#2952A3"/>
<path d="M53.4938 43.5996C53.4514 43.642 53.4231 43.6703 53.3807 43.7127L53.4938 43.5996Z" fill="#2952A3"/>
<path d="M54.0612 42.9756C54.0052 43.0457 53.9351 43.1298 53.865 43.1999C53.9351 43.1158 54.0052 43.0457 54.0612 42.9756Z" fill="#2952A3"/>
<path d="M41.3853 42.991L41.3005 42.8779L41.3853 42.991Z" fill="#2952A3"/>
<path d="M41.6622 43.3098L41.5081 43.1416L41.6622 43.3098Z" fill="#2952A3"/>
<path d="M41.9535 43.6159C41.8835 43.5458 41.8134 43.4757 41.7433 43.3916C41.8134 43.4757 41.8835 43.5458 41.9535 43.6159Z" fill="#2952A3"/>
<path d="M72.0197 1.36547C68.2559 -1.12528 63.1914 -0.11514 60.6868 3.63482L47.7211 23.0765L54.5153 33.2886C56.4802 36.2637 56.3003 40.1658 54.0725 42.9472C54.2247 42.7535 54.3769 42.5597 54.5153 42.3522L74.2752 12.6984C76.766 8.93459 75.7559 3.87006 72.0197 1.36547Z" fill="#007BFF"/>
<path d="M43.1825 44.6188C44.497 45.5044 46.0468 45.9749 47.6243 45.9888C45.521 45.9611 43.5007 45.1308 41.9924 43.6641C42.3522 44.01 42.7535 44.3283 43.1825 44.6188Z" fill="#2952A3"/>
<path d="M53.1865 43.8887L53.1316 43.9436L53.1865 43.8887Z" fill="#2952A3"/>
<path d="M54.5153 33.2765L47.7072 23.0645L40.8992 33.2765C38.9481 36.2239 39.1003 40.0984 41.2866 42.8798L41.3697 42.9905C41.4112 43.0458 41.4527 43.0873 41.4942 43.1427L41.6464 43.3087C41.6741 43.3364 41.7018 43.3641 41.7294 43.3918C41.7986 43.4609 41.8678 43.544 41.937 43.6132L41.9785 43.6547C43.4868 45.1214 45.5071 45.9655 47.6104 45.9794H47.6796H47.8733C49.8105 45.9379 51.6648 45.2183 53.1177 43.9314L53.1731 43.8761C53.2422 43.8207 53.3114 43.7515 53.3668 43.6823C53.4083 43.6408 53.436 43.6132 53.4775 43.5716C53.519 43.5301 53.5743 43.4748 53.6159 43.4194C53.6574 43.3641 53.7127 43.3087 53.7681 43.2672L53.8511 43.1704C53.9203 43.1012 53.9756 43.0181 54.0448 42.949L54.0725 42.9213C56.3142 40.1538 56.4802 36.2516 54.5153 33.2765Z" fill="#4FA1CA"/>
<path d="M54.5153 33.2765L47.7072 23.0645L40.8992 33.2765C38.9481 36.2239 39.1003 40.0984 41.2866 42.8798L41.3697 42.9905C41.4112 43.0458 41.4527 43.0873 41.4942 43.1427L41.6464 43.3087C41.6741 43.3364 41.7018 43.3641 41.7294 43.3918C41.7986 43.4609 41.8678 43.544 41.937 43.6132L41.9785 43.6547C43.4868 45.1214 45.5071 45.9655 47.6104 45.9794H47.6796H47.8733C49.8105 45.9379 51.6648 45.2183 53.1177 43.9314L53.1731 43.8761C53.2422 43.8207 53.3114 43.7515 53.3668 43.6823C53.4083 43.6408 53.436 43.6132 53.4775 43.5716C53.519 43.5301 53.5743 43.4748 53.6159 43.4194C53.6574 43.3641 53.7127 43.3087 53.7681 43.2672L53.8511 43.1704C53.9203 43.1012 53.9756 43.0181 54.0448 42.949L54.0725 42.9213C56.3142 40.1538 56.4802 36.2516 54.5153 33.2765Z" fill="#1D94FF"/>
<path d="M35.0598 4.14594C34.9629 3.96605 34.8384 3.78617 34.7139 3.62012L35.0598 4.14594Z" fill="#4FA1CA"/>
<path d="M22.6891 1.9043C22.0802 2.40245 21.5544 2.99746 21.1254 3.64782L1.36547 33.3016C-1.12528 37.0654 -0.11514 42.1299 3.63482 44.6345C7.39862 47.1253 12.4631 46.1151 14.9677 42.3652L27.9473 22.8958L21.1531 12.6976C18.8561 9.22434 19.5203 4.58877 22.6891 1.9043Z" fill="#7BE0FF"/>
<path d="M40.913 33.2734L47.7211 23.0614L35.0597 4.14551C35.1981 4.40842 35.3365 4.68517 35.4334 4.97576C36.0976 6.73312 36.5404 9.72202 34.9075 12.4203L34.8937 12.4618C34.8383 12.5449 34.783 12.6279 34.7276 12.7109L27.9473 22.8953L40.913 42.3508C41.0375 42.5307 41.1621 42.7106 41.3005 42.8905C39.1141 40.0953 38.9619 36.2347 40.913 33.2734Z" fill="#54A6FF"/>
<path d="M95.2114 16.2537C93.6201 15.2574 91.7797 14.7315 89.8978 14.7454C88.0712 14.8146 86.2862 15.3819 84.7502 16.3782C83.2004 17.3883 82.4255 19.3671 82.4255 22.3422V32.5681H84.7226C85.9818 32.5681 87.0057 31.5441 87.0057 30.2849V21.4289C87.0057 20.3772 87.3102 19.6162 87.919 19.1319C88.514 18.6614 89.2613 18.3985 90.0223 18.4123C90.7972 18.4123 91.5445 18.6614 92.1533 19.1319C92.7898 19.6162 93.1081 20.3772 93.1081 21.4289V30.3403C93.0527 31.5164 93.966 32.5127 95.1422 32.5681C95.2114 32.5681 95.2667 32.5681 95.3359 32.5681H97.633V22.3422C97.633 19.2979 96.8304 17.2638 95.2114 16.2537Z" fill="#54A6FF"/>
<path d="M111.221 15.272C109.782 14.7462 108.163 14.6078 106.378 14.8431C104.593 15.0783 103.126 15.8532 101.992 17.1678C101.258 18.0119 100.732 19.022 100.456 20.1152C100.137 21.2637 99.9714 22.4537 99.9575 23.6576C99.9575 25.069 100.151 26.4666 100.553 27.8227C100.94 29.1511 101.604 30.2165 102.517 31.0053C103.389 31.794 104.565 32.3475 106.018 32.6796C107.457 33.0117 108.952 32.9702 110.377 32.5828C111.996 32.2368 113.325 31.3374 114.376 29.8983C114.902 29.1095 115.289 28.2516 115.552 27.3383C115.857 26.3282 116.009 25.1382 116.009 23.7406C116.009 21.8172 115.635 20.129 114.902 18.6899C114.169 17.1263 112.854 15.8947 111.221 15.272ZM110.709 27.6013C110.183 28.39 109.588 28.8743 108.91 29.068C108.26 29.2618 107.554 29.2479 106.904 28.9988C106.254 28.7636 105.797 28.4592 105.534 28.1132C104.884 27.3245 104.51 25.9408 104.413 23.9482C104.33 21.9556 104.745 20.4611 105.659 19.4648C105.963 19.1604 106.447 18.9113 107.098 18.7176C107.734 18.5239 108.426 18.5377 109.063 18.7453C109.713 18.9667 110.294 19.4648 110.806 20.2535C111.318 21.0423 111.553 22.2185 111.553 23.7959C111.512 25.5395 111.221 26.8125 110.709 27.6013Z" fill="#54A6FF"/>
<path d="M127.896 16.7101L124.81 27.4065L121.862 16.973C121.558 15.8937 120.562 15.1465 119.441 15.1465H116.493L122.582 32.5817H127.231L133.389 15.1465H129.985C128.947 15.1465 128.241 15.6723 127.896 16.7101Z" fill="#54A6FF"/>
<path d="M145.317 15.272C143.878 14.7462 142.259 14.6078 140.474 14.8431C138.689 15.0783 137.222 15.8532 136.087 17.1678C135.354 18.0257 134.828 19.022 134.551 20.1152C134.233 21.2637 134.067 22.4537 134.067 23.6576C134.067 25.069 134.261 26.4666 134.662 27.8227C135.05 29.1511 135.714 30.2165 136.627 31.0053C137.499 31.794 138.675 32.3475 140.128 32.6796C141.567 33.0117 143.062 32.9702 144.487 32.5828C146.106 32.2368 147.434 31.3374 148.486 29.8983C149.012 29.1095 149.399 28.2516 149.662 27.3383C149.966 26.3282 150.119 25.1382 150.119 23.7406C150.119 21.8172 149.745 20.129 149.012 18.6899C148.264 17.1124 146.936 15.8947 145.317 15.272ZM144.791 27.6013C144.265 28.39 143.67 28.8743 142.992 29.068C142.342 29.2618 141.636 29.2479 141 28.9988C140.349 28.7636 139.879 28.4592 139.616 28.1132C138.966 27.3245 138.592 25.9408 138.509 23.9482C138.426 21.9556 138.841 20.4611 139.754 19.4648C140.059 19.1604 140.543 18.9113 141.193 18.7176C141.83 18.5239 142.522 18.5377 143.158 18.7453C143.809 18.9667 144.39 19.4648 144.902 20.2535C145.414 21.0423 145.649 22.2185 145.649 23.7959C145.594 25.5395 145.317 26.8125 144.791 27.6013Z" fill="#54A6FF"/>
<path d="M166.682 23.8647C165.81 23.1175 164.261 22.4671 162.033 21.8998C161.853 21.8998 161.659 21.8721 161.479 21.8306C161.244 21.7752 161.009 21.706 160.787 21.6368C158.518 21.1525 157.383 20.5714 157.383 19.8656C157.383 19.3398 157.577 18.9524 157.978 18.6895C158.421 18.4265 159.072 18.302 159.943 18.302C160.857 18.302 161.576 18.4957 162.102 18.897C162.282 19.0769 162.448 19.243 162.628 19.4228C163.057 20.1701 163.693 20.5437 164.524 20.5437H167.346C167.263 18.8002 166.585 17.3749 165.312 16.2817C163.956 15.2716 162.143 14.7734 159.874 14.7734C157.771 14.7734 156.069 15.2716 154.754 16.2817C153.523 17.2919 152.817 18.814 152.859 20.4053C152.859 21.7199 153.301 22.7577 154.173 23.5464C154.962 24.3352 156.512 25.0132 158.822 25.5805C159.404 25.7604 159.999 25.885 160.594 25.9818C162.434 26.3693 163.347 26.9643 163.347 27.753C163.347 28.2789 163.084 28.694 162.559 28.9984C161.936 29.3167 161.23 29.4827 160.524 29.455C159.431 29.455 158.56 29.2336 157.909 28.8047C157.3 28.3619 156.968 27.7115 156.927 26.8398H152.471V27.0335C152.471 28.9569 153.108 30.4237 154.367 31.42C155.584 32.4301 157.453 32.9283 159.943 32.9283C162.572 32.9283 164.537 32.4439 165.838 31.4892C167.236 30.4375 167.941 28.9569 167.941 27.0335C167.914 25.6912 167.512 24.6534 166.682 23.8647Z" fill="#54A6FF"/>
<path d="M174.736 12.2571C174.736 11.6621 174.5 11.0948 174.071 10.6797C173.684 10.2645 173.131 10.0293 172.563 10.0293H170.211V15.1353H167.928V18.2764H170.211V29.2911C170.211 31.2975 171.055 32.3769 172.729 32.5014C174.293 32.6259 175.856 32.6536 177.42 32.5706V30.5365C177.42 29.7754 176.797 29.1666 176.036 29.1666C175.165 29.1666 174.722 28.7929 174.722 28.0457V18.3456H175.178C175.76 18.3595 176.327 18.1381 176.756 17.7229C177.199 17.3078 177.434 16.7266 177.406 16.1178V15.2184H174.722L174.736 12.2571Z" fill="#54A6FF"/>
<path d="M187.12 14.7451C184.629 14.7451 182.692 15.5477 181.281 17.1667C179.925 18.7303 179.247 20.9166 179.247 23.7257C179.247 26.6592 179.938 28.9009 181.35 30.4784C182.747 32.0974 184.699 32.8999 187.189 32.8999C189.237 32.8999 190.953 32.4018 192.295 31.3916C193.651 30.4369 194.565 29.0393 195.049 27.1989H191.77C191.244 27.1989 190.842 27.3096 190.552 27.531C190.261 27.7524 190.109 27.9323 190.054 28.0568L189.694 28.4166C189.597 28.5273 189.472 28.5965 189.334 28.6518C188.753 28.9701 188.103 29.1361 187.438 29.1085C186.304 29.1085 185.446 28.7625 184.878 28.0568C184.27 27.4064 183.937 26.3963 183.896 25.0402H195.229C195.284 24.888 195.298 24.7358 195.298 24.5836V23.864C195.298 20.9858 194.592 18.7303 193.195 17.1113C191.77 15.5339 189.735 14.7451 187.12 14.7451ZM183.91 22.0928C183.951 20.9582 184.283 20.0864 184.892 19.4637C185.501 18.841 186.29 18.5366 187.245 18.5504C188.296 18.5504 189.099 18.8549 189.666 19.4637C190.192 20.031 190.496 20.9028 190.579 22.0928H183.91Z" fill="#54A6FF"/>
<path d="M205.732 14.7451C203.241 14.7451 201.304 15.5477 199.892 17.1667C198.536 18.7303 197.858 20.9166 197.858 23.7257C197.858 26.6592 198.564 28.9009 199.961 30.4784C201.359 32.0974 203.31 32.8999 205.801 32.8999C207.849 32.8999 209.551 32.4018 210.907 31.3916C212.263 30.4369 213.176 29.0393 213.661 27.1989H210.381C209.855 27.1989 209.454 27.3096 209.163 27.531C208.887 27.7524 208.721 27.9184 208.665 28.0568L208.305 28.4166C208.209 28.5273 208.084 28.5965 207.946 28.6518C207.365 28.9701 206.714 29.1361 206.05 29.1085C204.915 29.1085 204.057 28.7625 203.49 28.0568C202.881 27.4064 202.549 26.3963 202.508 25.0402H213.854C213.91 24.888 213.923 24.7358 213.923 24.5836V23.864C213.923 20.9858 213.218 18.7303 211.82 17.1113C210.381 15.5339 208.347 14.7451 205.732 14.7451ZM202.521 22.0928C202.563 20.9582 202.895 20.0864 203.504 19.4637C204.113 18.841 204.901 18.5366 205.856 18.5504C206.908 18.5504 207.71 18.8549 208.278 19.4637C208.804 20.031 209.108 20.9028 209.191 22.0928H202.521Z" fill="#54A6FF"/>
<path d="M226.073 15.1465H225.741C224.578 15.1465 223.416 15.2987 222.295 15.6031C221.23 15.8799 220.247 16.378 219.375 17.0422C218.462 17.7894 217.756 18.7442 217.314 19.8236C216.815 20.9859 216.566 22.4112 216.566 24.1132V32.5679H221.16V23.5874C221.16 22.2728 221.465 21.318 222.074 20.7092C222.683 20.1003 223.624 19.7959 224.897 19.7959C225.727 19.7959 226.405 19.1178 226.405 18.2876V15.1465H226.073Z" fill="#54A6FF"/>
</svg>
