<svg width="18" height="11" viewBox="0 0 18 11" fill="none" xmlns="http://www.w3.org/2000/svg">
<path d="M17.8781 5.86763C18.0471 5.63807 18.0398 5.32471 17.8598 5.10244C15.1373 1.78301 12.1982 0.0996094 9.1194 0.0996094C3.89871 0.0996094 0.27251 4.9239 0.121878 5.12795C-0.0471246 5.3575 -0.0397767 5.67086 0.140247 5.89313C2.85898 9.21621 5.79814 10.8996 8.87692 10.8996C14.0976 10.8996 17.7238 6.07532 17.8781 5.86763ZM8.87692 9.64981C6.3125 9.64981 3.81421 8.25062 1.44083 5.49597C2.37034 4.40649 5.3242 1.34941 9.1194 1.34941C11.6838 1.34941 14.1821 2.7486 16.5555 5.50325C15.626 6.59273 12.6721 9.64981 8.87692 9.64981Z" fill="#F8F9FA"/>
<path d="M8.99816 2.32593C7.23466 2.32593 5.79814 3.75062 5.79814 5.49961C5.79814 7.2486 7.23466 8.67329 8.99816 8.67329C10.7617 8.67329 12.1982 7.2486 12.1982 5.49961C12.1982 3.75062 10.7617 2.32593 8.99816 2.32593ZM8.99816 7.4235C7.92904 7.4235 7.05831 6.55993 7.05831 5.49961C7.05831 4.43929 7.92904 3.57572 8.99816 3.57572C10.0673 3.57572 10.938 4.43929 10.938 5.49961C10.938 6.55993 10.0673 7.4235 8.99816 7.4235Z" fill="#F8F9FA"/>
</svg>
