<?xml version="1.0" encoding="iso-8859-1"?>
<!-- Generator: Adobe Illustrator 19.0.0, SVG Export Plug-In . SVG Version: 6.00 Build 0)  -->
<svg version="1.1" id="Capa_1" xmlns="http://www.w3.org/2000/svg" xmlns:xlink="http://www.w3.org/1999/xlink" x="0px" y="0px"
	 viewBox="0 0 511.999 511.999" style="enable-background:new 0 0 511.999 511.999;" xml:space="preserve">
<g>
	<g>
		<rect x="54.25" y="202.069" width="108.53" height="201.59"/>
	</g>
</g>
<g>
	<g>
		<rect x="201.74" y="202.069" width="108.53" height="201.59"/>
	</g>
</g>
<g>
	<g>
		<rect x="349.22" y="202.069" width="108.53" height="201.59"/>
	</g>
</g>
<g>
	<g>
		<path d="M470.464,433.656H41.536c-7.318,0.996-12.963,7.254-12.963,14.846v48.497c0,8.284,6.716,15,15,15h424.854
			c8.284,0,15-6.716,15-15v-48.497C483.427,440.911,477.782,434.653,470.464,433.656z"/>
	</g>
</g>
<g>
	<g>
		<path d="M500.644,118.517L267.479,1.591c-4.157-2.084-9.046-2.124-13.235-0.104L11.57,118.413
			c-6.304,3.038-9.67,10.03-8.113,16.853c0.997,4.369,3.849,7.916,7.605,9.908c2.11,1.119,4.501,1.753,7.018,1.753h22.982v25.139
			h429.875v-25.139h22.982c2.516,0,4.908-0.633,7.018-1.752c3.722-1.974,6.557-5.475,7.579-9.793
			C510.118,128.614,506.859,121.634,500.644,118.517z M280.888,98.057h-49.775c-8.284,0-15-6.716-15-15s6.716-15,15-15h49.775
			c8.284,0,15,6.716,15,15S289.172,98.057,280.888,98.057z"/>
	</g>
</g>
<g>
</g>
<g>
</g>
<g>
</g>
<g>
</g>
<g>
</g>
<g>
</g>
<g>
</g>
<g>
</g>
<g>
</g>
<g>
</g>
<g>
</g>
<g>
</g>
<g>
</g>
<g>
</g>
<g>
</g>
</svg>
