<?xml version="1.0" encoding="utf-8"?>
<!-- Generator: Adobe Illustrator 24.1.3, SVG Export Plug-In . SVG Version: 6.00 Build 0)  -->
<svg version="1.1" id="Capa_1" xmlns="http://www.w3.org/2000/svg" xmlns:xlink="http://www.w3.org/1999/xlink" x="0px" y="0px"
	 viewBox="0 0 512 512" style="enable-background:new 0 0 512 512;" xml:space="preserve">
<g>
	<g>
		<path d="M480.1,405.8c17.6,0,31.9-14.3,31.9-31.9V204c0-17.6-14.3-31.9-31.9-31.9s-31.9,14.3-31.9,31.9v93L295.1,143.8
			c-12.4-12.4-32.6-12.4-45.1,0l-83.7,83.7L54.4,115.6C34.3,95.5,0,109.7,0,138.1c0,8.5,3.4,16.6,9.3,22.5l134.5,134.5
			c12.4,12.4,32.6,12.4,45.1,0l83.7-83.7l130.6,130.6h-93c-17.6,0-31.9,14.3-31.9,31.9s14.3,31.9,31.9,31.9L480.1,405.8L480.1,405.8
			z"/>
	</g>
</g>
</svg>
