<?xml version="1.0" encoding="utf-8"?>
<!-- Generator: Adobe Illustrator 25.3.1, SVG Export Plug-In . SVG Version: 6.00 Build 0)  -->
<svg version="1.1" id="Capa_1" xmlns="http://www.w3.org/2000/svg" xmlns:xlink="http://www.w3.org/1999/xlink" x="0px" y="0px"
	 viewBox="0 0 55.8 55.8" style="enable-background:new 0 0 55.8 55.8;" xml:space="preserve">
<g>
	<path d="M27.9,11.2c-1.4,0-2.8,0.5-3.9,1.6c-0.3,0.3-0.5,0.6-0.7,0.9L1.6,35.4c-1.1,1-1.6,2.4-1.6,3.8C0,40.6,0.5,42,1.6,43
		c2.1,2.1,5.5,2.1,7.6,0l18.7-18.7l18.6,18.6c2.1,2.1,5.5,2.1,7.6,0c2.1-2.1,2.1-5.5,0-7.6L32.5,13.7c-0.2-0.3-0.4-0.6-0.7-0.9
		C30.8,11.7,29.3,11.2,27.9,11.2z"/>
</g>
</svg>
