<?xml version="1.0" encoding="utf-8"?>
<!-- Generator: Adobe Illustrator 24.1.3, SVG Export Plug-In . SVG Version: 6.00 Build 0)  -->
<svg version="1.1" id="Capa_1" xmlns="http://www.w3.org/2000/svg" xmlns:xlink="http://www.w3.org/1999/xlink" x="0px" y="0px"
	 viewBox="0 0 512 512" style="enable-background:new 0 0 512 512;" xml:space="preserve">
<g>
	<g>
		<path d="M480.1,106.2h-170c-17.6,0-31.9,14.3-31.9,31.9s14.3,31.9,31.9,31.9h93L272.6,300.6l-83.7-83.7
			c-12.4-12.4-32.6-12.4-45.1,0L9.3,351.3c-6,6-9.3,14.1-9.3,22.5c0,28.4,34.3,42.6,54.4,22.5l111.9-111.9l83.7,83.7
			c12.4,12.4,32.6,12.4,45.1,0L448.3,215v93c0,17.6,14.3,31.9,31.9,31.9S512,325.6,512,308v-170C512,120.5,497.7,106.2,480.1,106.2
			L480.1,106.2z"/>
	</g>
</g>
</svg>
