<svg id="Layer_1" enable-background="new 0 0 24 24" height="512" viewBox="0 0 24 24" width="512" xmlns="http://www.w3.org/2000/svg"><g><path d="m6.93 12c0 .552.448 1 1 1h5v7c-.005 1.655-1.345 2.995-3 3h-6c-1.657 0-3-1.343-3-3v-16c0-1.657 1.343-3 3-3h6c1.655.005 2.995 1.345 3 3v7h-5c-.552 0-1 .448-1 1z"/><path d="m22.638 11.297-6-6c-.384-.397-1.017-.408-1.414-.025-.397.384-.408 1.017-.025 1.414.008.008.016.017.025.025l4.291 4.289h-6.585v2h6.585l-4.293 4.293c-.397.384-.408 1.017-.025 1.414s1.017.408 1.414.025c.008-.008.017-.016.025-.025l6-6c.043-.04.316-.3.31-.719-.005-.402-.263-.649-.308-.691z"/></g></svg>