<svg height="512pt" viewBox="-26 0 512 512.00107" width="512pt" xmlns="http://www.w3.org/2000/svg"><path d="m102.402344 256c.023437-21.199219 17.199218-38.375 38.398437-38.398438h166.398438v-153.601562c-.035157-35.332031-28.667969-63.9609375-63.996094-64h-179.203125c-35.328125.0429688-63.9570312 28.671875-64 64v384c.0429688 35.328125 28.671875 63.960938 64 64h179.203125c35.328125-.035156 63.960937-28.667969 64-64v-153.597656h-166.402344c-21.199219-.023438-38.375-17.203125-38.398437-38.402344zm0 0"/><path d="m457.050781 246.949219-76.800781-76.796875c-5.082031-4.914063-13.1875-4.773438-18.097656.3125-4.792969 4.960937-4.792969 12.824218 0 17.785156l54.949218 54.949219h-276.300781c-7.070312 0-12.800781 5.734375-12.800781 12.800781 0 7.070312 5.730469 12.800781 12.800781 12.800781h276.300781l-54.949218 54.949219c-5.085938 4.914062-5.226563 13.015625-.316406 18.101562 4.914062 5.082032 13.015624 5.226563 18.101562.3125.105469-.101562.210938-.207031.3125-.3125l76.800781-76.800781c5-4.992187 5-13.09375.007813-18.089843-.003906-.003907-.003906-.007813-.007813-.011719zm0 0"/></svg>