<?xml version="1.0" encoding="utf-8"?>
<!-- Generator: Adobe Illustrator 23.0.1, SVG Export Plug-In . SVG Version: 6.00 Build 0)  -->
<svg version="1.1" id="Layer_1" xmlns="http://www.w3.org/2000/svg" xmlns:xlink="http://www.w3.org/1999/xlink" x="0px" y="0px"
	 viewBox="0 0 512 512" style="enable-background:new 0 0 512 512;" xml:space="preserve">
<style type="text/css">
	.st0{opacity:0.3;fill:#FFFFFF;}
	.st1{fill:#C9B481;}
</style>
<path class="st0" d="M0,141.2v349.6L174.8,316L0,141.2z"/>
<path class="st0" d="M309,344.2c-14.1,14.1-33,21.9-53,21.9s-38.9-7.8-53-21.9l-7-7L21.2,512h469.6L316,337.2L309,344.2z"/>
<path class="st0" d="M75,120H21.2L75,173.8V120z"/>
<path class="st0" d="M437,120v53.8l53.8-53.8H437z"/>
<path class="st0" d="M337.2,316L512,490.8V141.2L337.2,316z"/>
<path class="st1" d="M217.2,316l7,7c8.5,8.4,19.8,13.1,31.8,13.1s23.4-4.7,31.8-13.1L407,203.8V0H105v203.8L217.2,316z M301,120h30
	v30h-30V120z M241,120h30v30h-30V120z M211,150h-30v-30h30V150z"/>
</svg>
