<svg id="Icons" height="512" viewBox="0 0 60 60" width="512" xmlns="http://www.w3.org/2000/svg"><path d="m42 49v-42a1 1 0 0 0 -1-1h-25v5h2v-2a1 1 0 0 1 2 0v2a2 2 0 0 1 -2 2h-2a2 2 0 0 1 -2-2v-5h-5a1 1 0 0 0 -1 1v42a1 1 0 0 0 1 1h32a1 1 0 0 0 1-1zm-6-9h-22a1 1 0 0 1 0-2h22a1 1 0 0 1 0 2zm0-5h-22a1 1 0 0 1 0-2h22a1 1 0 0 1 0 2zm0-5h-22a1 1 0 0 1 0-2h22a1 1 0 0 1 0 2zm0-5h-22a1 1 0 0 1 0-2h22a1 1 0 0 1 0 2zm0-5h-22a1 1 0 0 1 0-2h22a1 1 0 0 1 0 2z"/><path d="m46 53v-42a1 1 0 0 0 -1-1h-1v39a3 3 0 0 1 -3 3h-29v1a1 1 0 0 0 1 1h32a1 1 0 0 0 1-1z"/><path d="m49 14h-1v39a3 3 0 0 1 -3 3h-29v1a1 1 0 0 0 1 1h32a1 1 0 0 0 1-1v-42a1 1 0 0 0 -1-1z"/><path d="m23 2v2h-2v-2h-5v2h-2v-2a2.006 2.006 0 0 1 2-2h5a2.006 2.006 0 0 1 2 2z"/></svg>