<svg id="Capa_1" enable-background="new 0 0 512 512" height="512" viewBox="0 0 512 512" width="512" xmlns="http://www.w3.org/2000/svg"><g><path d="m237.5 181.087v-70.989c-15.526 19.107-25.521 44.041-28.122 70.989z"/><path d="m237.5 280.198v-69.048h-27.93c2.884 26.204 12.778 50.4 27.93 69.048z"/><path d="m152.241 211.15c4.826 33.607 25.581 62.124 54.329 77.593-14.971-22.188-24.521-49.055-27.139-77.593z"/><path d="m204.568 104.6c-27.707 15.699-47.614 43.664-52.327 76.487h27.025c2.25-27.962 11.155-54.393 25.302-76.487z"/><path d="m267.5 110.098v70.989h28.122c-2.601-26.948-12.596-51.882-28.122-70.989z"/><path d="m294.979 293.642c34.102-13.737 59.387-44.936 64.781-82.492h-34.19c-2.815 30.673-13.638 59.416-30.591 82.492z"/><path d="m267.5 211.15v69.047c15.152-18.648 25.046-42.844 27.93-69.047z"/><path d="m374.581 0h-302.025c-8.284 0-15 6.73-15 15.032v481.936c0 8.302 6.716 15.032 15 15.032h302.025c44.037 0 79.863-35.902 79.863-80.032v-351.936c0-44.13-35.826-80.032-79.863-80.032zm-8.583 417.318h-219.996c-8.284 0-15-6.73-15-15.032s6.716-15.032 15-15.032h219.996c8.284 0 15 6.73 15 15.032s-6.716 15.032-15 15.032zm-109.998-86.077c-74.349 0-134.837-60.616-134.837-135.123s60.488-135.123 134.837-135.123 134.837 60.616 134.837 135.123-60.488 135.123-134.837 135.123z"/><path d="m296.974 99.419c16.158 23.083 26.331 51.487 28.76 81.668h34.025c-5.287-36.821-29.694-67.534-62.785-81.668z"/></g></svg>