<?xml version="1.0" encoding="utf-8"?>
<!-- Generator: Adobe Illustrator 23.0.1, SVG Export Plug-In . SVG Version: 6.00 Build 0)  -->
<svg version="1.1" id="Capa_1" xmlns="http://www.w3.org/2000/svg" xmlns:xlink="http://www.w3.org/1999/xlink" x="0px" y="0px"
	 viewBox="0 0 512 512" style="enable-background:new 0 0 512 512;" xml:space="preserve">
<style type="text/css">
	.st0{fill:#C9B481;}
	.st1{opacity:0.3;fill:#FFFFFF;}
</style>
<g>
	<g>
		<path class="st0" d="M332.5,213.4C332.5,213.4,332.6,213.4,332.5,213.4l18.5,14.8l18.4-14.8c0,0,0,0,0,0l97.6-78.4H234.9
			L332.5,213.4z"/>
		<path class="st0" d="M211,154.2v141.5l88.1-70.8L211,154.2z"/>
		<path class="st0" d="M491,154.2L402.9,225l88.1,70.8V154.2z"/>
		<path class="st0" d="M467.1,315L379,244.2l-18.6,14.9c-5.5,4.4-13.3,4.4-18.8,0L323,244.2L234.9,315H467.1z"/>
	</g>
	<path class="st1" d="M211,105h140V45c0-24.8-20.2-45-45-45H66C41.2,0,21,20.2,21,45v337h330v-37H211c-16.6,0-30-13.4-30-30V135
		C181,118.4,194.4,105,211,105z M156,75c-8.3,0-15-6.7-15-15s6.7-15,15-15h60c8.3,0,15,6.7,15,15s-6.7,15-15,15H156z"/>
	<path class="st0" d="M21,412v55c0,24.8,20.2,45,45,45h240c24.8,0,45-20.2,45-45v-55H21z M81,477c-8.3,0-15-6.7-15-15s6.7-15,15-15
		s15,6.7,15,15S89.3,477,81,477z M216,477h-60c-8.3,0-15-6.7-15-15s6.7-15,15-15h60c8.3,0,15,6.7,15,15S224.3,477,216,477z M291,477
		c-8.3,0-15-6.7-15-15s6.7-15,15-15s15,6.7,15,15S299.3,477,291,477z"/>
</g>
</svg>
