<?xml version="1.0" encoding="utf-8"?>
<!-- Generator: Adobe Illustrator 23.0.1, SVG Export Plug-In . SVG Version: 6.00 Build 0)  -->
<svg version="1.1" id="Layer_1" xmlns="http://www.w3.org/2000/svg" xmlns:xlink="http://www.w3.org/1999/xlink" x="0px" y="0px"
	 viewBox="0 0 1645.2 332.5" style="enable-background:new 0 0 1645.2 332.5;" xml:space="preserve">
<style type="text/css">
	.st0{fill:#FFFFFF;}
	.st1{fill:#7CCCC9;}
	.st2{fill:#4FA1CA;}
	.st3{fill:#5AC0FF;}
	.st4{fill:#2952A3;}
	.st5{fill:#007BFF;}
	.st6{fill:#1D94FF;}
	.st7{fill:#7BE0FF;}
	.st8{fill:#54A6FF;}
</style>
<title>logo</title>
<g>
	<g id="_x30_14a4c44-75c6-420f-bd63-d2460dbea2b8">
		<g id="ea53a456-41bc-4a1c-8e01-f08517380a25">
			<path class="st0" d="M611.2,306l-2.7,6.9h-9.8l16.2-37.3h9.8l15.8,37.3h-10.2l-2.7-6.9H611.2z M619.5,285l-5.4,13.8h10.9
				L619.5,285z"/>
			<path class="st0" d="M681.4,312.9h-9.2v-4.7c-1.9,3.4-5.2,5.1-9.4,5.1c-6.2,0-10.4-4.3-10.4-11v-18.1h9.2v15.5
				c0,3.4,1.9,5.5,4.8,5.5c3.5,0,5.6-2.9,5.6-6.8v-14.2h9.2V312.9z"/>
			<path class="st0" d="M718.1,311.3c-2.4,1.3-5,2-7.7,2c-5.5,0-9.6-3.1-9.6-9.1v-12.7h-4v-6h4v-8h9.2v7.9h7.5v6.1h-7.5v11.2
				c0,2.2,1,3.2,2.7,3.1c1.2-0.1,2.4-0.4,3.6-1L718.1,311.3z"/>
			<path class="st0" d="M762.5,298.5c0,8.8-6.3,14.7-15.8,14.7c-9.5,0-15.8-5.9-15.8-14.7c0-8.8,6.3-14.6,15.8-14.6
				C756.1,283.9,762.5,289.6,762.5,298.5z M740.3,298.6c0,4.5,2.6,7.5,6.4,7.5c3.8,0,6.4-3,6.4-7.5s-2.6-7.4-6.4-7.4
				C742.9,291.1,740.3,294.2,740.3,298.6L740.3,298.6z"/>
			<path class="st0" d="M817.4,275.6c11.8,0,19.9,7.6,19.9,18.6s-8.2,18.6-20.3,18.6h-15.7v-37.3L817.4,275.6L817.4,275.6z
				 M810.8,305.3h6.7c5.8,0,10.1-4.5,10.1-11s-4.4-11.1-10.5-11.1h-6.3V305.3z"/>
			<path class="st0" d="M880.2,301h-20.3c0.6,3.2,3.5,5.4,6.7,5.3c2.6,0,5.1-1,6.9-2.9l4.8,4.7c-2.9,3.2-7.2,5.1-12.6,5.1
				c-9.5,0-15.3-5.9-15.3-14.6c0-8.9,6.1-14.7,15.1-14.7C875.8,283.8,880.8,290.5,880.2,301z M871.3,296c0-3.5-2.2-5.8-5.5-5.8
				s-5.4,2.3-6,5.8H871.3z"/>
			<path class="st0" d="M921.4,294.1v18.7h-9v-3.3c-1.9,2.5-4.9,3.7-8.8,3.7c-6.1,0-9.9-3.7-9.9-9c0-5.4,3.8-8.6,11.1-8.6h7.6v-0.4
				c0-2.8-1.9-4.5-5.6-4.5c-3,0.1-5.9,1-8.6,2.4l-2.6-6.1c4.1-2.1,8.7-3.2,13.4-3.2C916.8,283.7,921.4,287.6,921.4,294.1z
				 M912.4,303.1v-2.6h-5.8c-2.8,0-4.2,1-4.2,3.1s1.5,3.4,4,3.4C909.3,307,911.8,305.5,912.4,303.1L912.4,303.1z"/>
			<path class="st0" d="M939,312.9v-39.5h9.2v39.5H939z"/>
			<path class="st0" d="M993.8,301h-20.3c0.6,3.2,3.5,5.4,6.7,5.3c2.6,0,5-1,6.9-2.9l4.8,4.7c-2.9,3.2-7.2,5.1-12.6,5.1
				c-9.5,0-15.3-5.9-15.3-14.6c0-8.9,6.1-14.7,15.1-14.7C989.4,283.8,994.4,290.5,993.8,301z M984.9,296c0-3.5-2.2-5.8-5.5-5.8
				c-3.3,0-5.4,2.3-6,5.8H984.9z"/>
			<path class="st0" d="M1018.7,289c1.9-3.3,5.5-5.4,9.4-5.3v8.3c-5.3-0.5-8.8,2-9.4,6.1v14.7h-9.2v-28.7h9.2V289z"/>
			<path class="st0" d="M1065.3,287l-3.1,6c-3.5-1.9-6.6-2.9-9.1-2.9c-1.6,0-2.8,0.6-2.8,2c0,3.9,15.2,2,15.2,12
				c0,5.9-5.2,9.1-12.2,9.1c-4.6,0.1-9.1-1.3-13-4l2.9-5.9c3,2.2,6.5,3.4,10.3,3.6c1.8,0,3.1-0.6,3.1-1.9c0-4.2-14.9-2-14.9-12.1
				c0-5.9,5-9.1,11.8-9.1C1057.6,283.8,1061.7,284.9,1065.3,287z"/>
			<path class="st0" d="M1110.9,294.7v18.1h-9.2v-15.5c0-3.4-1.9-5.4-5.1-5.4c-3.6,0-5.9,2.9-5.9,6.8v14.2h-9.2v-39.5h9.2v15.5
				c2-3.4,5.4-5.1,9.7-5.2C1106.8,283.7,1110.9,288,1110.9,294.7z"/>
			<path class="st0" d="M1137.7,275.9c0,2.7-2.2,4.8-4.8,4.8c-2.7,0-4.8-2.2-4.8-4.8c0-2.7,2.2-4.8,4.8-4.8c2.6-0.1,4.7,2,4.8,4.6
				C1137.7,275.7,1137.7,275.8,1137.7,275.9z M1128.2,312.9v-28.7h9.2v28.7H1128.2z"/>
			<path class="st0" d="M1187.3,298.6c0,8.7-5.2,14.5-13.4,14.5c-3.4,0.1-6.7-1.4-8.8-4.2v14.2h-9.2v-39h9.2v3.8
				c2-2.7,5.2-4.2,8.6-4.1C1181.8,283.8,1187.3,289.8,1187.3,298.6z M1177.9,298.4c0-4.4-2.6-7.5-6.4-7.5c-3.8,0-6.3,3.1-6.3,7.5
				s2.6,7.5,6.3,7.5S1177.9,302.8,1177.9,298.4z"/>
			<path class="st0" d="M1253.2,301h-20.3c0.6,3.2,3.5,5.4,6.7,5.3c2.6,0,5.1-1,6.9-2.9l4.8,4.7c-2.9,3.2-7.2,5.1-12.6,5.1
				c-9.5,0-15.3-5.9-15.3-14.6c0-8.9,6.1-14.7,15.1-14.7C1248.8,283.8,1253.8,290.5,1253.2,301z M1244.4,296c0-3.5-2.2-5.8-5.5-5.8
				c-3.3,0-5.4,2.3-6,5.8H1244.4z"/>
			<path class="st0" d="M1298.1,279.3l-3.6,7.4c-3.9-2.3-8.9-3.8-12-3.8c-2.5,0-4.1,0.9-4.1,2.7c0,6.4,19.8,2.8,19.8,16.2
				c0,7.5-6.6,11.4-15,11.4c-6.2,0-12.3-2.1-17.1-6l3.7-7.3c3.8,3.3,9.7,5.6,13.6,5.6c3,0,4.8-1.1,4.8-3.2c0-6.6-19.8-2.7-19.8-15.9
				c0-6.9,5.9-11.2,14.9-11.2C1288.6,275.2,1293.7,276.6,1298.1,279.3z"/>
			<path class="st0" d="M1343.2,298.5c0,8.8-6.3,14.7-15.8,14.7c-9.5,0-15.8-5.9-15.8-14.7c0-8.8,6.3-14.6,15.8-14.6
				C1336.9,283.9,1343.2,289.6,1343.2,298.5z M1321,298.6c0,4.5,2.6,7.5,6.4,7.5c3.8,0,6.4-3,6.4-7.5s-2.6-7.4-6.4-7.4
				C1323.7,291.1,1321,294.2,1321,298.6L1321,298.6z"/>
			<path class="st0" d="M1359.2,312.9v-39.5h9.2v39.5H1359.2z"/>
			<path class="st0" d="M1414.9,312.9h-9.2v-4.7c-1.9,3.4-5.2,5.1-9.4,5.1c-6.2,0-10.4-4.3-10.4-11v-18.1h9.3v15.5
				c0,3.4,1.9,5.5,4.8,5.5c3.5,0,5.6-2.9,5.6-6.8v-14.2h9.2L1414.9,312.9z"/>
			<path class="st0" d="M1451.6,311.3c-2.4,1.3-5,2-7.7,2c-5.5,0-9.6-3.1-9.6-9.1v-12.7h-4v-6h4v-8h9.2v7.9h7.5v6.1h-7.5v11.2
				c0,2.2,1,3.2,2.7,3.1c1.2-0.1,2.4-0.4,3.6-1L1451.6,311.3z"/>
			<path class="st0" d="M1476.4,275.9c0,2.7-2.2,4.8-4.8,4.8c-2.7,0-4.8-2.2-4.8-4.8c0-2.7,2.2-4.8,4.8-4.8c2.6-0.1,4.7,2,4.8,4.6
				C1476.4,275.7,1476.4,275.8,1476.4,275.9z M1466.9,312.9v-28.7h9.1v28.7H1466.9z"/>
			<path class="st0" d="M1523.3,298.5c0,8.8-6.3,14.7-15.7,14.7c-9.3,0-15.8-5.9-15.8-14.7c0-8.8,6.3-14.6,15.8-14.6
				C1517.1,283.8,1523.3,289.6,1523.3,298.5z M1501.1,298.6c0,4.5,2.6,7.5,6.4,7.5s6.4-3,6.4-7.5s-2.6-7.4-6.4-7.4
				C1503.8,291.1,1501.1,294.2,1501.1,298.6L1501.1,298.6z"/>
			<path class="st0" d="M1568.5,294.7v18.1h-9.2v-15.5c0-3.4-1.9-5.4-5.1-5.4c-3.4,0-5.5,2.4-5.9,5.8v15.2h-9.2v-28.7h9.2v4.7
				c2-3.4,5.3-5.1,9.7-5.1C1564.3,283.7,1568.5,288,1568.5,294.7z"/>
			<path class="st1" d="M165.4,13.4l0.5-0.4L165.4,13.4z"/>
			<path class="st2" d="M305.1,315.5l-0.3-0.3L305.1,315.5z"/>
			<path class="st2" d="M389.7,314c-0.3,0.4-0.7,0.7-1,1.1C389.1,314.8,389.4,314.4,389.7,314z"/>
			<path class="st2" d="M391.4,312.2l-0.6,0.7L391.4,312.2z"/>
			<path class="st2" d="M303.3,313.7c-0.2-0.2-0.4-0.4-0.6-0.6C302.9,313.2,303.1,313.4,303.3,313.7z"/>
			<path class="st2" d="M346.6,332.3L346.6,332.3z"/>
			<path class="st2" d="M379.6,322.5L379.6,322.5c2.2-1.5,4.3-3.1,6.3-4.9c-10.6,9.2-24,14.4-38.1,14.7
				C359.2,332.1,370.3,328.7,379.6,322.5z"/>
			<path class="st2" d="M387.9,315.9c-0.5,0.5-1,0.9-1.4,1.4C387,316.8,387.5,316.3,387.9,315.9z"/>
			<path class="st2" d="M301.6,311.8c-0.3-0.4-0.6-0.7-0.9-1.1C301,311,301.3,311.4,301.6,311.8z"/>
			<path class="st2" d="M164.9,13.8c0.2-0.1,0.4-0.3,0.5-0.4L164.9,13.8z"/>
			<path class="st2" d="M393,310.4l-0.2,0.2L393,310.4z"/>
			<path class="st3" d="M235.9,10L235.9,10c-21.5-14.2-49.8-13-70,3l-0.5,0.4c-0.2,0.1-0.4,0.3-0.5,0.4c-23,19.4-27.8,52.9-11.2,78
				l49.4,73.7l49.3-73.6C270.4,64.8,263.1,28.2,235.9,10z"/>
			<path class="st4" d="M390.8,312.9c-0.4,0.4-0.7,0.8-1.1,1.1L390.8,312.9z"/>
			<path class="st4" d="M388.7,315.1c-0.3,0.3-0.5,0.5-0.8,0.8L388.7,315.1z"/>
			<path class="st4" d="M392.8,310.6c-0.4,0.5-0.9,1.1-1.4,1.6C391.9,311.6,392.4,311.1,392.8,310.6z"/>
			<path class="st4" d="M300.7,310.7l-0.6-0.8L300.7,310.7z"/>
			<path class="st4" d="M302.7,313l-1.1-1.2L302.7,313z"/>
			<path class="st4" d="M304.8,315.2c-0.5-0.5-1-1-1.5-1.6C303.8,314.2,304.3,314.7,304.8,315.2z"/>
			<path class="st5" d="M523.3,9.9L523.3,9.9C496-8.1,459.2-0.8,441,26.3l-94.2,140.5l49.4,73.8c14.3,21.5,13,49.7-3.2,69.8
				c1.1-1.4,2.2-2.8,3.2-4.3L539.7,91.8C557.8,64.6,550.4,28,523.3,9.9z"/>
			<path class="st4" d="M313.8,322.5L313.8,322.5c9.6,6.4,20.8,9.8,32.3,9.9c-15.3-0.2-30-6.2-40.9-16.8
				C307.7,318.1,310.7,320.4,313.8,322.5z"/>
			<path class="st4" d="M348,332.3h-1.4H348z"/>
			<path class="st4" d="M386.5,317.2l-0.4,0.4L386.5,317.2z"/>
			<path class="st2" d="M396.1,240.5l-49.5-73.8l-49.5,73.8c-14.2,21.3-13.1,49.3,2.8,69.4l0.6,0.8c0.3,0.4,0.6,0.7,0.9,1.1l1.1,1.2
				c0.2,0.2,0.4,0.4,0.6,0.6c0.5,0.5,1,1.1,1.5,1.6l0.3,0.3c11,10.6,25.6,16.7,40.9,16.8h0.5h1.4c14.1-0.3,27.5-5.5,38.1-14.8
				l0.4-0.4c0.5-0.4,1-0.9,1.4-1.4c0.3-0.3,0.5-0.5,0.8-0.8c0.3-0.3,0.7-0.7,1-1.1s0.7-0.8,1.1-1.1l0.6-0.7c0.5-0.5,0.9-1.1,1.4-1.6
				l0.2-0.2C409.2,290.2,410.4,262,396.1,240.5z"/>
			<path class="st6" d="M396.1,240.5l-49.5-73.8l-49.5,73.8c-14.2,21.3-13.1,49.3,2.8,69.4l0.6,0.8c0.3,0.4,0.6,0.7,0.9,1.1l1.1,1.2
				c0.2,0.2,0.4,0.4,0.6,0.6c0.5,0.5,1,1.1,1.5,1.6l0.3,0.3c11,10.6,25.6,16.7,40.9,16.8h0.5h1.4c14.1-0.3,27.5-5.5,38.1-14.8
				l0.4-0.4c0.5-0.4,1-0.9,1.4-1.4c0.3-0.3,0.5-0.5,0.8-0.8c0.3-0.3,0.7-0.7,1-1.1s0.7-0.8,1.1-1.1l0.6-0.7c0.5-0.5,0.9-1.1,1.4-1.6
				l0.2-0.2C409.2,290.2,410.4,262,396.1,240.5z"/>
			<path class="st2" d="M254.8,30c-0.7-1.3-1.6-2.6-2.5-3.8L254.8,30z"/>
			<path class="st7" d="M164.9,13.8c-4.4,3.6-8.2,7.9-11.4,12.6L10,240.7c-18.1,27.2-10.8,63.8,16.5,81.9l0,0
				c27.3,18,64.1,10.7,82.3-16.4l94.3-140.7l-49.4-73.7C137,66.7,141.9,33.2,164.9,13.8z"/>
			<path class="st8" d="M297.3,240.5l49.5-73.8L254.8,30c1,1.9,2,3.9,2.7,6c4.8,12.7,8,34.3-3.8,53.8l-0.1,0.3
				c-0.4,0.6-0.8,1.2-1.2,1.8l-49.3,73.6l94.2,140.6c0.9,1.3,1.8,2.6,2.8,3.9C284.2,289.8,283.1,261.9,297.3,240.5z"/>
			<path class="st8" d="M691.8,117.5c-11.6-7.2-24.9-11-38.6-10.9c-13.3,0.5-26.2,4.6-37.4,11.8c-11.3,7.3-16.9,21.6-16.9,43.1v73.9
				h16.7c9.1,0,16.6-7.4,16.6-16.5v-64c0-7.6,2.2-13.1,6.6-16.6c4.3-3.4,9.8-5.3,15.3-5.2c5.6,0,11.1,1.8,15.5,5.2
				c4.6,3.5,6.9,9,6.9,16.6v64.4c-0.4,8.5,6.2,15.7,14.8,16.1c0.5,0,0.9,0,1.4,0h16.7v-73.9C709.4,139.5,703.6,124.8,691.8,117.5z"
				/>
			<path class="st8" d="M808.1,110.4c-10.5-3.8-22.2-4.8-35.2-3.1s-23.6,7.3-31.9,16.8c-5.3,6.1-9.1,13.4-11.2,21.3
				c-2.3,8.3-3.5,16.9-3.6,25.6c0,10.2,1.4,20.3,4.3,30.1c2.8,9.6,7.6,17.3,14.3,23c6.3,5.7,14.9,9.7,25.4,12.1
				c10.5,2.4,21.3,2.1,31.7-0.7c11.8-2.5,21.4-9,29.1-19.4c3.8-5.7,6.6-11.9,8.5-18.5c2.2-7.3,3.3-15.9,3.3-26
				c0-13.9-2.7-26.1-8-36.5C829.5,123.8,820,114.9,808.1,110.4z M804.4,199.5c-3.8,5.7-8.1,9.2-13.1,10.6c-4.7,1.4-9.9,1.3-14.6-0.5
				c-4.7-1.7-8-3.9-10-6.4c-4.7-5.7-7.4-15.7-8.1-30.1c-0.6-14.4,2.4-25.2,9-32.4c2.2-2.2,5.7-4,10.5-5.4c4.6-1.4,9.7-1.3,14.3,0.2
				c4.7,1.6,8.9,5.2,12.7,10.9s5.4,14.2,5.4,25.6C810.2,184.6,808.1,193.8,804.4,199.5z"/>
			<path class="st8" d="M929.3,120.8l-22.4,77.3l-21.4-75.4c-2.2-7.8-9.5-13.2-17.6-13.2h-21.4l44.2,126h33.8l44.7-126h-24.7
				C936.9,109.5,931.8,113.3,929.3,120.8z"/>
			<path class="st8" d="M1055.8,110.4c-10.5-3.8-22.2-4.8-35.2-3.1c-13,1.7-23.6,7.3-31.9,16.8c-5.3,6.2-9.1,13.4-11.2,21.3
				c-2.3,8.3-3.5,16.9-3.5,25.6c0,10.2,1.4,20.3,4.3,30.1c2.8,9.6,7.6,17.3,14.3,23c6.3,5.7,14.9,9.7,25.4,12.1
				c10.5,2.4,21.3,2.1,31.7-0.7c11.8-2.5,21.4-9,29.1-19.4c3.8-5.7,6.6-11.9,8.5-18.5c2.2-7.3,3.3-15.9,3.3-26
				c0-13.9-2.7-26.1-8-36.5C1077.3,123.7,1067.6,114.9,1055.8,110.4z M1052,199.5c-3.8,5.7-8.1,9.2-13.1,10.6
				c-4.7,1.4-9.9,1.3-14.5-0.5c-4.7-1.7-8.1-3.9-10.1-6.4c-4.7-5.7-7.4-15.7-8-30.1c-0.6-14.4,2.4-25.2,9-32.4
				c2.2-2.2,5.7-4,10.5-5.4c4.6-1.4,9.7-1.3,14.3,0.2c4.7,1.6,8.9,5.2,12.7,10.9c3.7,5.7,5.4,14.2,5.4,25.6
				C1057.9,184.6,1055.8,193.8,1052,199.5z"/>
			<path class="st8" d="M1211.1,172.5c-6.3-5.4-17.6-10.1-33.8-14.2c-1.3,0-2.7-0.2-4-0.5c-1.7-0.4-3.4-0.9-5-1.4
				c-16.5-3.5-24.7-7.7-24.7-12.8c0-3.8,1.4-6.6,4.3-8.5c3.2-1.9,7.9-2.8,14.3-2.8c6.6,0,11.9,1.4,15.7,4.3c1.3,1.3,2.5,2.5,3.8,3.8
				c3.1,5.4,7.7,8.1,13.8,8.1h20.5c-0.6-12.6-5.5-22.9-14.8-30.8c-9.9-7.3-23-10.9-39.5-10.9c-15.3,0-27.6,3.6-37.2,10.9
				c-8.9,7.3-14.1,18.3-13.8,29.8c0,9.5,3.2,17,9.6,22.7c5.7,5.7,17,10.6,33.8,14.7c4.2,1.3,8.5,2.2,12.9,2.9
				c13.4,2.8,20,7.1,20,12.8c0,3.8-1.9,6.8-5.7,9c-4.5,2.3-9.7,3.5-14.8,3.3c-7.9,0-14.3-1.6-19-4.7c-4.4-3.2-6.8-7.9-7.1-14.2
				h-32.4v1.4c0,13.9,4.6,24.5,13.8,31.7c8.8,7.3,22.4,10.9,40.5,10.9c19.1,0,33.4-3.5,42.8-10.4c10.2-7.6,15.3-18.3,15.3-32.2
				C1220,185.7,1217.1,178.2,1211.1,172.5z"/>
			<path class="st8" d="M1269.6,88.6c0-4.3-1.7-8.4-4.8-11.4c-2.8-3-6.8-4.7-11-4.7h-17.1v36.9h-16.6v22.7h16.6v79.6
				c0,14.5,6.1,22.3,18.3,23.2c11.4,0.9,22.7,1.1,34.1,0.5v-14.7c0-5.5-4.5-9.9-10.1-9.9c-6.3,0-9.6-2.7-9.6-8.1v-70.1h3.3
				c4.2,0.1,8.3-1.5,11.5-4.5c3.2-3,4.9-7.2,4.7-11.6V110h-19.5L1269.6,88.6z"/>
			<path class="st8" d="M1359.6,106.6c-18.1,0-32.2,5.8-42.4,17.5c-9.9,11.3-14.8,27.1-14.8,47.4c0,21.2,5,37.4,15.3,48.8
				c10.2,11.7,24.3,17.5,42.4,17.5c14.9,0,27.3-3.6,37.1-10.9c9.9-6.9,16.5-17,20-30.3h-23.8c-3.8,0-6.7,0.8-8.8,2.4
				s-3.2,2.9-3.6,3.8l-2.6,2.6c-0.7,0.8-1.6,1.3-2.6,1.7c-4.2,2.3-8.9,3.5-13.8,3.3c-8.2,0-14.5-2.5-18.6-7.6
				c-4.4-4.7-6.8-12-7.1-21.8h82.3c0.4-1.1,0.5-2.2,0.5-3.3v-5.2c0-20.8-5.1-37.1-15.3-48.8C1393.4,112.3,1378.6,106.6,1359.6,106.6
				z M1336.2,159.7c0.3-8.2,2.7-14.5,7.1-19s10.2-6.7,17.1-6.6c7.6,0,13.5,2.2,17.6,6.6c3.8,4.1,6,10.4,6.6,19H1336.2z"/>
			<path class="st8" d="M1494.8,106.6c-18.1,0-32.2,5.8-42.4,17.5c-9.9,11.3-14.8,27.1-14.8,47.4c0,21.2,5.1,37.4,15.3,48.8
				c10.2,11.7,24.3,17.5,42.4,17.5c14.9,0,27.2-3.6,37.1-10.9c9.9-6.9,16.5-17,20-30.3h-23.8c-3.8,0-6.7,0.8-8.8,2.4
				c-2,1.6-3.2,2.8-3.6,3.8l-2.6,2.6c-0.7,0.8-1.6,1.3-2.6,1.7c-4.2,2.3-8.9,3.5-13.8,3.3c-8.2,0-14.5-2.5-18.6-7.6
				c-4.4-4.7-6.8-12-7.1-21.8h82.4c0.4-1.1,0.5-2.2,0.5-3.3v-5.2c0-20.8-5.1-37.1-15.3-48.8C1528.6,112.3,1513.8,106.6,1494.8,106.6
				z M1471.5,159.7c0.3-8.2,2.7-14.5,7.1-19s10.2-6.7,17.1-6.6c7.6,0,13.5,2.2,17.6,6.6c3.8,4.1,6,10.4,6.6,19H1471.5z"/>
			<path class="st8" d="M1642.6,109.5h-2.4c-8.4,0-16.9,1.1-25,3.3c-7.7,2-14.9,5.6-21.2,10.4c-6.6,5.4-11.8,12.3-15,20.1
				c-3.6,8.4-5.4,18.7-5.4,31v61.1h33.4v-64.9c0-9.5,2.2-16.4,6.6-20.8c4.4-4.4,11.3-6.6,20.5-6.6c6,0,11-4.9,11-10.9v-22.7H1642.6z
				"/>
		</g>
	</g>
</g>
<path class="st0" d="M1599.3,286.4l-3.1,6c-3.5-1.9-6.6-2.9-9.1-2.9c-1.6,0-2.8,0.6-2.8,2c0,3.9,15.1,2,15.1,12
	c0,5.9-5.2,9.1-12.1,9.1c-4.6,0.1-9.1-1.3-12.9-4l2.9-5.9c3,2.2,6.5,3.4,10.2,3.6c1.8,0,3.1-0.6,3.1-1.9c0-4.2-14.8-2-14.8-12.1
	c0-5.9,5-9.1,11.7-9.1C1591.6,283.2,1595.7,284.3,1599.3,286.4z"/>
</svg>
