<svg width="15" height="15" viewBox="0 0 15 15" fill="none" xmlns="http://www.w3.org/2000/svg">
<path d="M7.5 0C3.36425 0 0 3.36425 0 7.5C0 11.6358 3.36425 15 7.5 15C11.6358 15 15 11.6352 15 7.5C15 3.36483 11.6358 0 7.5 0ZM7.5 13.8381C4.00562 13.8381 1.16188 10.995 1.16188 7.5C1.16188 4.00503 4.00562 1.16188 7.5 1.16188C10.9944 1.16188 13.8381 4.00503 13.8381 7.5C13.8381 10.995 10.995 13.8381 7.5 13.8381Z" fill="#F8F9FA"/>
<path d="M10.4047 6.86664H8.08095V4.54287C8.08095 4.22219 7.82127 3.96191 7.5 3.96191C7.17873 3.96191 6.91904 4.22219 6.91904 4.54287V6.86664H4.59527C4.274 6.86664 4.01431 7.12691 4.01431 7.4476C4.01431 7.76828 4.274 8.02855 4.59527 8.02855H6.91904V10.3523C6.91904 10.673 7.17873 10.9333 7.5 10.9333C7.82127 10.9333 8.08095 10.673 8.08095 10.3523V8.02855H10.4047C10.726 8.02855 10.9857 7.76828 10.9857 7.4476C10.9857 7.12691 10.726 6.86664 10.4047 6.86664Z" fill="#F8F9FA"/>
</svg>
