<svg width="50" height="50" viewBox="0 0 50 50" fill="none" xmlns="http://www.w3.org/2000/svg">
<rect x="0.625" y="0.625" width="48.75" height="48.75" rx="24.375" fill="url(#paint0_linear_1001_228)"/>
<path fill-rule="evenodd" clip-rule="evenodd" d="M31.0698 17.816V21.1002C31.0698 21.4401 31.3511 21.716 31.6977 21.716C32.0443 21.716 32.3256 21.4401 32.3256 21.1002V17.816C32.3256 17.4761 32.0443 17.2002 31.6977 17.2002C31.3511 17.2002 31.0698 17.4761 31.0698 17.816Z" fill="#F8F9FA"/>
<path fill-rule="evenodd" clip-rule="evenodd" d="M30.0233 20.0739H33.3721C33.7187 20.0739 34 19.798 34 19.4581C34 19.1182 33.7187 18.8423 33.3721 18.8423H30.0233C29.6767 18.8423 29.3953 19.1182 29.3953 19.4581C29.3953 19.798 29.6767 20.0739 30.0233 20.0739Z" fill="#F8F9FA"/>
<path fill-rule="evenodd" clip-rule="evenodd" d="M26.6744 17.6107H22.5872C22.0321 17.6107 21.5247 17.9186 21.2769 18.4047L20.4841 19.9606C20.4481 20.0295 20.3761 20.0739 20.2966 20.0739H18.3023C17.0306 20.0739 16 21.0846 16 22.3318V30.5423C16 31.1408 16.2428 31.7156 16.674 32.1392C17.106 32.5621 17.692 32.8002 18.3023 32.8002H31.6977C32.308 32.8002 32.894 32.5621 33.326 32.1392C33.7572 31.7156 34 31.1408 34 30.5423C34 28.0406 34 23.5634 34 23.5634C34 23.2234 33.7187 22.9476 33.3721 22.9476C33.0255 22.9476 32.7442 23.2234 32.7442 23.5634V30.5423C32.7442 30.8149 32.6337 31.0752 32.4378 31.2681C32.241 31.4602 31.9756 31.5686 31.6977 31.5686H18.3023C18.0244 31.5686 17.759 31.4602 17.5622 31.2681C17.3663 31.0752 17.2558 30.8149 17.2558 30.5423V22.3318C17.2558 21.7652 17.7247 21.3055 18.3023 21.3055H20.2966C20.8516 21.3055 21.359 20.9976 21.6068 20.5115L22.3996 18.9556C22.4356 18.8866 22.5076 18.8423 22.5872 18.8423H26.6744C27.021 18.8423 27.3023 18.5664 27.3023 18.2265C27.3023 17.8866 27.021 17.6107 26.6744 17.6107Z" fill="#F8F9FA"/>
<path fill-rule="evenodd" clip-rule="evenodd" d="M25 22.1265C22.8048 22.1265 21.0233 23.8737 21.0233 26.0265C21.0233 28.1793 22.8048 29.9265 25 29.9265C27.1952 29.9265 28.9767 28.1793 28.9767 26.0265C28.9767 23.8737 27.1952 22.1265 25 22.1265ZM25 23.3581C26.502 23.3581 27.7209 24.5535 27.7209 26.0265C27.7209 27.4995 26.502 28.6949 25 28.6949C23.498 28.6949 22.2791 27.4995 22.2791 26.0265C22.2791 24.5535 23.498 23.3581 25 23.3581Z" fill="#F8F9FA"/>
<rect x="0.625" y="0.625" width="48.75" height="48.75" rx="24.375" stroke="url(#paint1_linear_1001_228)" stroke-width="1.25"/>
<defs>
<linearGradient id="paint0_linear_1001_228" x1="50" y1="25" x2="3.56667e-08" y2="25" gradientUnits="userSpaceOnUse">
<stop offset="0.5625" stop-color="#181818"/>
<stop offset="1" stop-color="#202124"/>
</linearGradient>
<linearGradient id="paint1_linear_1001_228" x1="50" y1="-2.98023e-06" x2="2.98023e-06" y2="50" gradientUnits="userSpaceOnUse">
<stop offset="0.0989583" stop-color="#007BFF"/>
<stop offset="0.770833" stop-color="#3C4043" stop-opacity="0.25"/>
<stop offset="1" stop-color="#F8F9FA" stop-opacity="0.5"/>
</linearGradient>
</defs>
</svg>
