<svg width="428" height="428" viewBox="0 0 428 428" fill="none" xmlns="http://www.w3.org/2000/svg">
<path d="M243.867 214L420.933 36.9337C429.467 28.4003 429.467 15.6003 420.933 7.06699C412.4 -1.46634 399.6 -1.46634 391.066 7.06699L214 184.134L36.9332 7.06699C28.3998 -1.46634 15.5998 -1.46634 7.0665 7.06699C-1.46683 15.6003 -1.46683 28.4003 7.0665 36.9337L184.133 214L7.0665 391.067C-1.46683 399.6 -1.46683 412.4 7.0665 420.934C11.3332 425.2 15.5998 427.334 21.9998 427.334C28.3998 427.334 32.6665 425.2 36.9332 420.934L214 243.867L391.066 420.934C395.333 425.2 401.733 427.334 406 427.334C410.267 427.334 416.667 425.2 420.933 420.934C429.467 412.4 429.467 399.6 420.933 391.067L243.867 214Z" fill="white"/>
</svg>
