<svg width="15" height="14" viewBox="0 0 15 14" fill="none" xmlns="http://www.w3.org/2000/svg">
<path d="M12.75 12H2.25V12.75C2.25 12.9489 2.17098 13.1397 2.03033 13.2803C1.88968 13.421 1.69891 13.5 1.5 13.5H0.75C0.551088 13.5 0.360322 13.421 0.21967 13.2803C0.0790176 13.1397 0 12.9489 0 12.75V5.25L1.86 0.909001C1.97574 0.639001 2.16822 0.408929 2.41354 0.247335C2.65886 0.0857416 2.94624 -0.000260676 3.24 5.93524e-07H11.76C12.0535 3.3009e-05 12.3406 0.0861727 12.5856 0.247748C12.8306 0.409324 13.0229 0.639235 13.1385 0.909001L15 5.25V12.75C15 12.9489 14.921 13.1397 14.7803 13.2803C14.6397 13.421 14.4489 13.5 14.25 13.5H13.5C13.3011 13.5 13.1103 13.421 12.9697 13.2803C12.829 13.1397 12.75 12.9489 12.75 12.75V12ZM13.5 6.75H1.5V10.5H13.5V6.75ZM1.632 5.25H13.368L11.7607 1.5H3.24L1.63275 5.25H1.632ZM3.375 9.75C3.07663 9.75 2.79048 9.63147 2.5795 9.4205C2.36853 9.20952 2.25 8.92337 2.25 8.625C2.25 8.32663 2.36853 8.04048 2.5795 7.82951C2.79048 7.61853 3.07663 7.5 3.375 7.5C3.67337 7.5 3.95952 7.61853 4.1705 7.82951C4.38147 8.04048 4.5 8.32663 4.5 8.625C4.5 8.92337 4.38147 9.20952 4.1705 9.4205C3.95952 9.63147 3.67337 9.75 3.375 9.75ZM11.625 9.75C11.3266 9.75 11.0405 9.63147 10.8295 9.4205C10.6185 9.20952 10.5 8.92337 10.5 8.625C10.5 8.32663 10.6185 8.04048 10.8295 7.82951C11.0405 7.61853 11.3266 7.5 11.625 7.5C11.9234 7.5 12.2095 7.61853 12.4205 7.82951C12.6315 8.04048 12.75 8.32663 12.75 8.625C12.75 8.92337 12.6315 9.20952 12.4205 9.4205C12.2095 9.63147 11.9234 9.75 11.625 9.75Z" fill="#F8F9FA"/>
</svg>
