<svg width="20" height="20" viewBox="0 0 20 20" fill="none" xmlns="http://www.w3.org/2000/svg">
<path d="M18.5118 13.1435C18.3055 12.9521 17.9705 12.9522 17.764 13.1435L14.3986 16.2616L12.9028 14.8758C12.6963 14.6844 12.3614 14.6844 12.1549 14.8758C11.9484 15.0672 11.9484 15.3773 12.1549 15.5687L14.0246 17.3009C14.1278 17.3965 14.2631 17.4444 14.3984 17.4444C14.5338 17.4444 14.6692 17.3966 14.7724 17.3009L18.5118 13.8364C18.7183 13.6451 18.7183 13.3348 18.5118 13.1435Z" fill="#F8F9FA"/>
<path d="M19.091 9.09091H11.8183C11.5772 9.09091 11.3459 8.99513 11.1754 8.82464C11.005 8.65415 10.9092 8.42292 10.9092 8.18182V0.909091C10.9092 0.667985 11.005 0.436754 11.1754 0.266267C11.3459 0.0957789 11.5772 0 11.8183 0H19.091C19.3321 0 19.5633 0.0957789 19.7338 0.266267C19.9043 0.436754 20.0001 0.667985 20.0001 0.909091V8.18182C20.0001 8.42292 19.9043 8.65415 19.7338 8.82464C19.5633 8.99513 19.3321 9.09091 19.091 9.09091ZM12.7274 7.27273H18.1819V1.81818H12.7274V7.27273Z" fill="#F8F9FA"/>
<path d="M8.18182 10.9092H0.909091C0.667985 10.9092 0.436754 11.005 0.266267 11.1754C0.0957789 11.3459 0 11.5772 0 11.8183V19.091C0 19.3321 0.0957789 19.5633 0.266267 19.7338C0.436754 19.9043 0.667985 20.0001 0.909091 20.0001H8.18182C8.42292 20.0001 8.65415 19.9043 8.82464 19.7338C8.99513 19.5633 9.09091 19.3321 9.09091 19.091V11.8183C9.09091 11.5772 8.99513 11.3459 8.82464 11.1754C8.65415 11.005 8.42292 10.9092 8.18182 10.9092ZM7.27273 18.1819H1.81818V12.7274H7.27273V18.1819Z" fill="#F8F9FA"/>
<path d="M8.18182 9.09091H0.909091C0.667985 9.09091 0.436754 8.99513 0.266267 8.82464C0.0957789 8.65415 0 8.42292 0 8.18182V0.909091C0 0.667985 0.0957789 0.436754 0.266267 0.266267C0.436754 0.0957789 0.667985 0 0.909091 0H8.18182C8.42292 0 8.65415 0.0957789 8.82464 0.266267C8.99513 0.436754 9.09091 0.667985 9.09091 0.909091V8.18182C9.09091 8.42292 8.99513 8.65415 8.82464 8.82464C8.65415 8.99513 8.42292 9.09091 8.18182 9.09091ZM1.81818 7.27273H7.27273V1.81818H1.81818V7.27273Z" fill="#F8F9FA"/>
</svg>
