<?xml version="1.0" encoding="iso-8859-1"?>
<!-- Generator: Adobe Illustrator 19.0.0, SVG Export Plug-In . SVG Version: 6.00 Build 0)  -->
<svg version="1.1" id="Capa_1" xmlns="http://www.w3.org/2000/svg" xmlns:xlink="http://www.w3.org/1999/xlink" x="0px" y="0px"
	 viewBox="0 0 512 512" style="enable-background:new 0 0 512 512;" xml:space="preserve">
<g>
	<g>
		<path d="M165,301c-8.276,0-15,6.724-15,15s6.724,15,15,15s15-6.724,15-15S173.276,301,165,301z"/>
	</g>
</g>
<g>
	<g>
		<path d="M285,211H45c-24.814,0-45,20.186-45,45v180c0,24.814,20.186,45,45,45h240c24.814,0,45-20.186,45-45V256
			C330,231.186,309.814,211,285,211z M180,358.237V406c0,8.291-6.709,15-15,15s-15-6.709-15-15v-47.763
			c-17.422-6.213-30-22.707-30-42.237c0-24.814,20.186-45,45-45c24.814,0,45,20.186,45,45C210,335.53,197.422,352.024,180,358.237z"
			/>
	</g>
</g>
<g>
	<g>
		<path d="M467,301c-19.53,0-36.024,12.578-42.237,30H360v30h64.763c6.213,17.422,22.707,30,42.237,30c24.814,0,45-20.186,45-45
			C512,321.186,491.814,301,467,301z"/>
	</g>
</g>
<g>
	<g>
		<path d="M467,421c-8.221,0-15.831,2.379-22.471,6.244l-26.06-30.912C415.613,392.948,411.424,391,407,391h-47v30h40.027
			l24.886,29.52C423.124,455.367,422,460.538,422,466c0,24.814,20.186,46,45,46c24.814,0,45-21.186,45-46
			C512,441.186,491.814,421,467,421z"/>
	</g>
</g>
<g>
	<g>
		<path d="M467,181c-24.814,0-45,20.186-45,45c0,7.286,1.904,14.07,4.99,20.164L400.979,271H360v30h47
			c3.853,0,7.573-1.494,10.356-4.16l31.258-29.863C454.241,269.513,460.438,271,467,271c24.814,0,45-20.186,45-45
			C512,201.186,491.814,181,467,181z"/>
	</g>
</g>
<g>
	<g>
		<path d="M165,0C98.833,0,45,53.833,45,120v61h60v-61c0-33.091,26.909-60,60-60s60,26.909,60,60v61h60v-61
			C285,53.833,231.167,0,165,0z"/>
	</g>
</g>
<g>
</g>
<g>
</g>
<g>
</g>
<g>
</g>
<g>
</g>
<g>
</g>
<g>
</g>
<g>
</g>
<g>
</g>
<g>
</g>
<g>
</g>
<g>
</g>
<g>
</g>
<g>
</g>
<g>
</g>
</svg>
