<svg width="15" height="15" viewBox="0 0 15 15" fill="none" xmlns="http://www.w3.org/2000/svg">
<path fill-rule="evenodd" clip-rule="evenodd" d="M10.1288 15C11.3405 15 12.3456 14.0906 12.4297 12.9183L13.1336 3.10738H13.371C13.7184 3.10738 14 2.83424 14 2.4973C14 2.16035 13.7184 1.88721 13.371 1.88721H1.62903C1.28163 1.88721 1 2.16035 1 2.4973C1 2.83424 1.28163 3.10738 1.62903 3.10738H1.86637L2.57031 12.9183C2.65443 14.0906 3.65951 15 4.8712 15H10.1288ZM3.82534 12.8336C3.86357 13.3665 4.32043 13.7798 4.8712 13.7798H10.1288C10.6795 13.7798 11.1364 13.3665 11.1746 12.8336L11.8725 3.10738H3.12748L3.82534 12.8336Z" fill="#FF4646"/>
<path fill-rule="evenodd" clip-rule="evenodd" d="M4.35484 0.610087C4.35484 0.273148 4.63647 0 4.98387 0H10.0161C10.3635 0 10.6452 0.273148 10.6452 0.610087C10.6452 0.947026 10.3635 1.22017 10.0161 1.22017H4.98387C4.63647 1.22017 4.35484 0.947026 4.35484 0.610087Z" fill="#FF4646"/>
</svg>
