<svg width="20" height="20" viewBox="0 0 20 20" fill="none" xmlns="http://www.w3.org/2000/svg">
<path d="M16.0734 0.266169C15.8984 0.0957411 15.6611 0 15.4136 0C15.1661 0 14.9287 0.0957411 14.7537 0.266169L4.30025 10.448C4.19717 10.5474 4.11976 10.6692 4.07438 10.8034L2.58103 15.1671C2.5343 15.3037 2.52158 15.4492 2.54392 15.5916C2.56625 15.734 2.62301 15.8692 2.70951 15.9861C2.79602 16.1029 2.90978 16.198 3.04144 16.2636C3.1731 16.3293 3.31889 16.3634 3.46678 16.3634C3.56707 16.3634 3.6667 16.3474 3.76171 16.3161L8.24176 14.8616C8.37955 14.8174 8.50462 14.742 8.6067 14.6416L19.0601 4.4598C19.2351 4.28932 19.3334 4.05813 19.3334 3.81707C19.3334 3.57601 19.2351 3.34483 19.0601 3.17435L16.0734 0.266169ZM7.44282 13.2052L4.94239 14.0171L5.77587 11.5816L15.4136 2.19435L17.0805 3.81798L7.44282 13.2052Z" fill="#F8F9FA"/>
<path d="M17.6438 18.1818H1.60992C1.35977 18.1818 1.11987 18.2776 0.942996 18.4481C0.766117 18.6186 0.666748 18.8498 0.666748 19.0909C0.666748 19.332 0.766117 19.5632 0.942996 19.7337C1.11987 19.9042 1.35977 20 1.60992 20H17.6438C17.8939 20 18.1338 19.9042 18.3107 19.7337C18.4876 19.5632 18.5869 19.332 18.5869 19.0909C18.5869 18.8498 18.4876 18.6186 18.3107 18.4481C18.1338 18.2776 17.8939 18.1818 17.6438 18.1818Z" fill="#F8F9FA"/>
</svg>
