<svg id="ea6794dc-9589-4173-979b-cbcc241ad39d" data-name="Layer 1" xmlns="http://www.w3.org/2000/svg" xmlns:xlink="http://www.w3.org/1999/xlink" viewBox="0 0 126.79 402"><defs><clipPath id="ac6350ae-7f19-430c-83f8-322dab6f0d2d" transform="translate(0 0)"><rect width="126.79" height="402" style="fill:none"/></clipPath></defs><title>Exclamation</title><g style="clip-path:url(#ac6350ae-7f19-430c-83f8-322dab6f0d2d)"><path d="M99.94,301.5H26.85A17.59,17.59,0,0,0,14,306.92a17.56,17.56,0,0,0-5.43,12.85v64A17.58,17.58,0,0,0,14,396.58,17.59,17.59,0,0,0,26.85,402H100a18.51,18.51,0,0,0,18.26-18.28v-64A18.51,18.51,0,0,0,99.94,301.5" transform="translate(0 0)" style="fill:#fff"/><path d="M121.78,5.42A17.12,17.12,0,0,0,109.07,0H17.71A17.12,17.12,0,0,0,5,5.42,16.84,16.84,0,0,0,0,18.27L8,237.54a18.38,18.38,0,0,0,5.85,12.85,18,18,0,0,0,13,5.43H100a18.05,18.05,0,0,0,13-5.43,18.42,18.42,0,0,0,5.85-12.85l8-219.27a16.84,16.84,0,0,0-5-12.85" transform="translate(0 0)" style="fill:#fff"/></g></svg>