<?xml version="1.0" encoding="iso-8859-1"?>
<!-- Generator: Adobe Illustrator 19.0.0, SVG Export Plug-In . SVG Version: 6.00 Build 0)  -->
<svg version="1.1" id="Capa_1" xmlns="http://www.w3.org/2000/svg" xmlns:xlink="http://www.w3.org/1999/xlink" x="0px" y="0px"
	 viewBox="0 0 375 375" style="enable-background:new 0 0 375 375;" xml:space="preserve">
<g>
	<g>
		<path d="M300,37.5h-37.5V0H225v37.5h-75V0h-37.5v37.5H75c-20.7,0-37.5,16.8-37.5,37.5v262.5c0,20.7,16.8,37.5,37.5,37.5h225
			c20.7,0,37.5-16.8,37.5-37.5V75C337.5,54.3,320.7,37.5,300,37.5z M112.5,262.3c0.5-40.8,32.7-73.6,72.9-74.8
			c-19.7-1.1-35.4-17.3-35.4-37.3c0-20.7,16.8-37.5,37.5-37.5s37.5,16.8,37.5,37.5c0,20-15.7,36.1-35.4,37.3
			c40.2,1.2,72.4,34,72.9,74.8H112.5z"/>
	</g>
</g>
<g>
</g>
<g>
</g>
<g>
</g>
<g>
</g>
<g>
</g>
<g>
</g>
<g>
</g>
<g>
</g>
<g>
</g>
<g>
</g>
<g>
</g>
<g>
</g>
<g>
</g>
<g>
</g>
<g>
</g>
</svg>
