<svg width="15" height="15" viewBox="0 0 15 15" fill="none" xmlns="http://www.w3.org/2000/svg">
<path d="M7.4751 13.75H1.86876C1.5249 13.75 1.24585 13.47 1.24585 13.125V1.87502C1.24585 1.53001 1.52493 1.25003 1.86876 1.25003H7.4751C7.81957 1.25003 8.09801 0.970666 8.09801 0.625045C8.09801 0.279424 7.81957 0 7.4751 0H1.86876C0.838447 0 0 0.841272 0 1.87502V13.125C0 14.1588 0.838447 15 1.86876 15H7.4751C7.81957 15 8.09801 14.7206 8.09801 14.375C8.09801 14.0294 7.81957 13.75 7.4751 13.75Z" fill="#F8F9FA"/>
<path d="M14.8144 7.05501L11.027 3.305C10.7828 3.0625 10.3879 3.06564 10.1462 3.31126C9.90448 3.55689 9.90697 3.95251 10.1524 4.19501L12.859 6.875H5.60631C5.26184 6.875 4.9834 7.15436 4.9834 7.49998C4.9834 7.84561 5.26184 8.125 5.60631 8.125H12.859L10.1524 10.805C9.907 11.0475 9.90513 11.4431 10.1462 11.6887C10.2683 11.8125 10.429 11.875 10.5897 11.875C10.7479 11.875 10.9061 11.815 11.027 11.695L14.8144 7.94496C14.9327 7.82747 15 7.66745 15 7.49996C15 7.33252 14.9333 7.17315 14.8144 7.05501Z" fill="#F8F9FA"/>
</svg>
