<svg width="20" height="20" viewBox="0 0 20 20" fill="none" xmlns="http://www.w3.org/2000/svg">
<path d="M19.7653 7.77687C19.6152 7.62336 19.4116 7.53712 19.1994 7.53712C18.9872 7.53712 18.7837 7.62336 18.6336 7.77687L17.5283 8.9077C17.2864 6.88361 16.3798 5.00356 14.9571 3.5755C13.5343 2.14744 11.6798 1.25604 9.69715 1.04729C7.71452 0.838549 5.72138 1.32484 4.04419 2.42652C2.367 3.52819 1.1052 5.17994 0.465458 7.11121C-0.17428 9.04248 -0.154027 11.1388 0.522901 13.0567C1.19983 14.9747 2.4933 16.6006 4.19145 17.6681C5.8896 18.7357 7.89175 19.1815 9.86995 18.9327C11.8482 18.6839 13.6851 17.7552 15.08 16.2986C15.2187 16.1419 15.2928 15.9363 15.2867 15.725C15.2806 15.5136 15.1949 15.3129 15.0474 15.1647C14.8999 15.0166 14.7022 14.9326 14.4955 14.9302C14.2889 14.9279 14.0893 15.0075 13.9387 15.1523C12.8088 16.3342 11.3232 17.093 9.72089 17.3068C8.11854 17.5206 6.49246 17.177 5.10404 16.3311C3.71562 15.4853 2.64551 14.1864 2.06574 12.6432C1.48597 11.1 1.43022 9.40214 1.90744 7.82261C2.38466 6.24308 3.36714 4.8736 4.69694 3.93431C6.02673 2.99502 7.6266 2.5405 9.23937 2.64379C10.8521 2.74709 12.3841 3.40221 13.589 4.50385C14.7939 5.60548 15.6018 7.08963 15.8828 8.71773L14.9632 7.77769C14.8122 7.62853 14.61 7.54599 14.4002 7.54786C14.1903 7.54972 13.9896 7.63584 13.8412 7.78766C13.6928 7.93948 13.6087 8.14486 13.6068 8.35956C13.605 8.57426 13.6857 8.78111 13.8315 8.93554L16.2325 11.3921C16.3826 11.5456 16.5861 11.6318 16.7984 11.6318C17.0106 11.6318 17.2141 11.5456 17.3642 11.3921L19.7653 8.93554C19.8397 8.85949 19.8987 8.76918 19.939 8.66978C19.9793 8.57037 20 8.46382 20 8.35621C20 8.2486 19.9793 8.14204 19.939 8.04263C19.8987 7.94323 19.8397 7.85292 19.7653 7.77687Z" fill="#F8F9FA"/>
</svg>
