<svg width="18" height="18" viewBox="0 0 18 18" fill="none" xmlns="http://www.w3.org/2000/svg">
<path d="M0.790714 6.63429C0.581004 6.63429 0.379882 6.55098 0.231595 6.40269C0.0833071 6.2544 0 6.05328 0 5.84357V0.790714C0 0.581004 0.0833071 0.379882 0.231595 0.231595C0.379882 0.0833071 0.581004 0 0.790714 0H5.84357C6.05328 4.41932e-09 6.2544 0.0833071 6.40269 0.231595C6.55098 0.379882 6.63429 0.581004 6.63429 0.790714C6.63429 1.00042 6.55098 1.20155 6.40269 1.34983C6.2544 1.49812 6.05328 1.58143 5.84357 1.58143H1.58143V5.84357C1.58143 6.05328 1.49812 6.2544 1.34983 6.40269C1.20155 6.55098 1.00042 6.63429 0.790714 6.63429Z" fill="#F8F9FA"/>
<path d="M5.84357 18H0.790714C0.581004 18 0.379882 17.9167 0.231595 17.7684C0.0833071 17.6201 0 17.419 0 17.2093V12.1564C4.41932e-09 11.9467 0.0833071 11.7456 0.231595 11.5973C0.379882 11.449 0.581004 11.3657 0.790714 11.3657C1.00042 11.3657 1.20155 11.449 1.34983 11.5973C1.49812 11.7456 1.58143 11.9467 1.58143 12.1564V16.4186H5.84357C6.05328 16.4186 6.2544 16.5019 6.40269 16.6502C6.55098 16.7985 6.63429 16.9996 6.63429 17.2093C6.63429 17.419 6.55098 17.6201 6.40269 17.7684C6.2544 17.9167 6.05328 18 5.84357 18Z" fill="#F8F9FA"/>
<path d="M17.2093 18H12.1564C11.9467 18 11.7456 17.9167 11.5973 17.7684C11.449 17.6201 11.3657 17.419 11.3657 17.2093C11.3657 16.9996 11.449 16.7985 11.5973 16.6502C11.7456 16.5019 11.9467 16.4186 12.1564 16.4186H16.4186V12.1564C16.4186 11.9467 16.5019 11.7456 16.6502 11.5973C16.7985 11.449 16.9996 11.3657 17.2093 11.3657C17.419 11.3657 17.6201 11.449 17.7684 11.5973C17.9167 11.7456 18 11.9467 18 12.1564V17.2093C18 17.419 17.9167 17.6201 17.7684 17.7684C17.6201 17.9167 17.419 18 17.2093 18Z" fill="#F8F9FA"/>
<path d="M17.2093 6.63429C16.9996 6.63429 16.7985 6.55098 16.6502 6.40269C16.5019 6.2544 16.4186 6.05328 16.4186 5.84357V1.58143H12.1564C11.9467 1.58143 11.7456 1.49812 11.5973 1.34983C11.449 1.20155 11.3657 1.00042 11.3657 0.790714C11.3657 0.581004 11.449 0.379882 11.5973 0.231595C11.7456 0.0833071 11.9467 0 12.1564 0H17.2093C17.419 0 17.6201 0.0833071 17.7684 0.231595C17.9167 0.379882 18 0.581004 18 0.790714V5.84357C18 6.05328 17.9167 6.2544 17.7684 6.40269C17.6201 6.55098 17.419 6.63429 17.2093 6.63429Z" fill="#F8F9FA"/>
<path d="M17.2093 9.79071H0.790714C0.581004 9.79071 0.379882 9.70741 0.231595 9.55912C0.0833071 9.41083 0 9.20971 0 9C0 8.79029 0.0833071 8.58917 0.231595 8.44088C0.379882 8.29259 0.581004 8.20929 0.790714 8.20929H17.2093C17.419 8.20929 17.6201 8.29259 17.7684 8.44088C17.9167 8.58917 18 8.79029 18 9C18 9.20971 17.9167 9.41083 17.7684 9.55912C17.6201 9.70741 17.419 9.79071 17.2093 9.79071Z" fill="#F8F9FA"/>
</svg>
