<svg height="512" viewBox="0 0 64 64" width="512" xmlns="http://www.w3.org/2000/svg"><g id="Rotate_Phone" data-name="Rotate Phone"><path d="m43.54456 7.81036 3.11657-1.64581a1 1 0 0 0 -.93359-1.76855l-4.92139 2.59863a1.45193 1.45193 0 0 0 -.59765 1.97168l2.67285 5.00781a1 1 0 0 0 1.76465-.94141l-1.78595-3.34631a22.95616 22.95616 0 0 1 15.11016 19.14075.99993.99993 0 0 0 1.98829-.21485 24.97223 24.97223 0 0 0 -16.41394-20.80194z"/><path d="m23.7915 55.03369-2.67285-5.00781a1.00007 1.00007 0 0 0 -1.76465.94141l1.786 3.34631a22.95616 22.95616 0 0 1 -15.11021-19.14075 1 1 0 0 0 -1.98829.21485 24.97223 24.97223 0 0 0 16.41394 20.80194l-3.11657 1.64581a1 1 0 0 0 .93359 1.76855l4.92139-2.59863a1.45193 1.45193 0 0 0 .59765-1.97168z"/><path d="m37.041 57.61523-30.65623-30.65623a3.71386 3.71386 0 0 1 0-5.24609l15.32812-15.32814a3.71386 3.71386 0 0 1 5.24609 0l30.65625 30.65623a3.71386 3.71386 0 0 1 0 5.24609l-15.32812 15.32814a3.71325 3.71325 0 0 1 -5.24611 0zm-13.914-49.8164-15.32817 15.32817a1.71193 1.71193 0 0 0 0 2.418l30.65625 30.65617a1.71282 1.71282 0 0 0 2.418 0l15.32809-15.32812a1.71193 1.71193 0 0 0 0-2.418l-30.65625-30.65622a1.71277 1.71277 0 0 0 -2.41792 0z"/><path d="m14.6875 18.51953 3.832-3.832a.99992.99992 0 0 1 1.41406 1.41406l-3.832 3.832a.99991.99991 0 0 1 -1.41406-1.41406z"/><path d="m43.42773 47.39648a2.80633 2.80633 0 1 1 3.96875 0 2.80943 2.80943 0 0 1 -3.96875 0zm1.41407-2.55468a.80654.80654 0 1 0 1.14062 0 .80747.80747 0 0 0 -1.14062 0z"/></g></svg>