<svg width="51" height="50" viewBox="0 0 51 50" fill="none" xmlns="http://www.w3.org/2000/svg">
<path d="M20.1068 3.62148C15.3877 7.32141 10.6764 11.0226 5.97807 14.7079C4.96719 15.501 4.79711 16.993 5.59053 18.0036L27.5466 45.9745C28.34 46.9851 29.8283 47.1642 30.8392 46.3712L44.968 35.2848C45.9789 34.4917 46.1581 33.0088 45.3647 31.9982L23.4056 4.02734C22.4532 2.92662 21.0194 2.88457 20.1068 3.62148ZM29.8566 4.81465C29.707 5.22 29.9148 5.66983 30.3205 5.81862C38.2613 8.67972 42.7579 14.8947 42.9326 22.3186L41.4343 20.8111C41.1289 20.504 40.632 20.504 40.3266 20.8111C40.0195 21.1165 40.0195 21.6134 40.3266 21.9188L43.1767 24.769C43.4807 25.0679 43.9682 25.0679 44.2722 24.769L47.1255 21.9188C47.4325 21.6134 47.4325 21.1165 47.1255 20.8111C46.8197 20.502 46.3204 20.502 46.0147 20.8111L44.5011 22.3247C44.3119 14.2743 39.3184 7.40454 30.8514 4.35386C30.4109 4.21285 29.9567 4.44349 29.8566 4.81465ZM22.1789 4.98859L44.138 32.9594C44.4137 33.3107 44.3485 33.7766 43.9976 34.0519L29.8688 45.1353C29.5179 45.4106 29.0582 45.3553 28.7825 45.0041L6.82336 17.0363C6.54761 16.685 6.59753 16.2161 6.94847 15.9407L9.79559 13.707L10.2716 14.3142C10.9811 15.2179 12.2855 15.5416 13.2042 14.8208L18.5139 10.6676C19.4327 9.94683 19.4187 8.59292 18.7092 7.68925L18.2393 7.08198L21.0772 4.85737C21.2949 4.65738 21.8303 4.55212 22.1789 4.98859ZM17.0126 8.05849L17.4855 8.65965C17.7578 9.00643 17.6809 9.32395 17.5435 9.4317L12.246 13.5971C12.1086 13.7049 11.7676 13.6906 11.4953 13.3438L11.0345 12.7549L17.0126 8.05849ZM9.4172 15.4342L8.39187 16.2398C8.04874 16.5038 7.98579 16.9965 8.25149 17.3384C8.52012 17.6766 9.01225 17.7327 9.35006 17.4635L10.3876 16.6579C10.7268 16.3901 10.7842 15.8979 10.5158 15.5593C10.1846 15.1463 9.70055 15.1939 9.4172 15.4342ZM6.68299 25.2206L3.83282 28.0708C3.52578 28.3762 3.52578 28.8731 3.83282 29.1785C4.13823 29.4856 4.63513 29.4856 4.94054 29.1785L6.45412 27.6588C6.64072 35.7121 11.6375 42.5842 20.1068 45.6357C20.5112 45.7765 20.9535 45.5655 21.0986 45.1628C21.2394 44.7584 21.0284 44.3161 20.6256 44.171C12.6848 41.3099 8.1882 35.0949 8.01347 27.671L9.52095 29.1785C9.82636 29.4856 10.3233 29.4856 10.6287 29.1785C10.9357 28.8731 10.9357 28.3762 10.6287 28.0708L7.7785 25.2206C7.40891 24.8649 6.86936 24.9962 6.68299 25.2206Z" fill="#F8F9FA"/>
</svg>
