<svg width="15" height="15" viewBox="0 0 15 15" fill="none" xmlns="http://www.w3.org/2000/svg">
<path d="M9.75 15H1.5C0.675 15 0 14.325 0 13.5V5.25C0 4.8 0.3 4.5 0.75 4.5C1.2 4.5 1.5 4.8 1.5 5.25V13.5H9.75C10.2 13.5 10.5 13.8 10.5 14.25C10.5 14.7 10.2 15 9.75 15Z" fill="#F8F9FA"/>
<path d="M13.5 12H4.5C3.675 12 3 11.325 3 10.5V1.5C3 0.675 3.675 0 4.5 0H13.5C14.325 0 15 0.675 15 1.5V10.5C15 11.325 14.325 12 13.5 12ZM4.5 1.5V10.5H13.5V1.5H4.5Z" fill="#F8F9FA"/>
<path d="M11.775 5.02498C12.075 4.72498 12.075 4.27498 11.775 3.97498C11.475 3.67498 11.025 3.67498 10.725 3.97498L11.775 5.02498ZM8.25 7.49998L7.725 8.02498C8.025 8.32498 8.475 8.32498 8.775 8.02498L8.25 7.49998ZM7.275 5.47498C6.975 5.17498 6.525 5.17498 6.225 5.47498C5.925 5.77498 5.925 6.22498 6.225 6.52498L7.275 5.47498ZM10.725 3.97498L7.725 6.97498L8.775 8.02498L11.775 5.02498L10.725 3.97498ZM8.775 6.97498L7.275 5.47498L6.225 6.52498L7.725 8.02498L8.775 6.97498Z" fill="#F8F9FA"/>
</svg>
