<svg width="18" height="18" viewBox="0 0 18 18" fill="none" xmlns="http://www.w3.org/2000/svg">
<path d="M16.418 3H1.58203C0.711492 3 0 3.67163 0 4.5V13.5C0 14.3287 0.711949 15 1.58203 15H16.418C17.2885 15 18 14.3284 18 13.5V4.5C18 3.67143 17.2882 3 16.418 3ZM16.175 4C15.6636 4.48657 9.65549 10.2017 9.40866 10.4365C9.2025 10.6325 8.79761 10.6327 8.59134 10.4365L1.82496 4H16.175ZM1.05469 13.3162V4.68383L5.59213 9L1.05469 13.3162ZM1.82496 14L6.3367 9.70827L7.84438 11.1424C8.46222 11.7301 9.53803 11.7299 10.1557 11.1424L11.6633 9.7083L16.175 14H1.82496ZM16.9453 13.3162L12.4079 9L16.9453 4.68383V13.3162Z" fill="#F8F9FA"/>
</svg>
