<svg width="15" height="15" viewBox="0 0 15 15" fill="none" xmlns="http://www.w3.org/2000/svg">
<path d="M4.80027 4.34568L6.81827 2.32782V11.5908C6.81827 11.9674 7.12355 12.2726 7.50009 12.2726C7.87664 12.2726 8.18191 11.9674 8.18191 11.5908V2.32786L10.1997 4.34568C10.3329 4.47882 10.5074 4.54541 10.6818 4.54541C10.8563 4.54541 11.0308 4.47886 11.1639 4.34568C11.4302 4.07941 11.4302 3.64773 11.1639 3.38145L7.98232 0.199818C7.96636 0.183864 7.94959 0.168818 7.93214 0.1545C7.92441 0.148136 7.91623 0.142636 7.90836 0.136682C7.8985 0.129318 7.88886 0.121682 7.87864 0.114864C7.869 0.108409 7.85895 0.102818 7.84909 0.0968636C7.83991 0.0913636 7.83095 0.0855909 7.8215 0.0805455C7.81136 0.0751364 7.801 0.0705909 7.79068 0.0657273C7.78082 0.0610909 7.77109 0.0561364 7.761 0.0519545C7.75105 0.0478182 7.74091 0.0445 7.73077 0.0409091C7.71991 0.037 7.70914 0.0328182 7.698 0.0294545C7.68795 0.0264091 7.67782 0.0242273 7.66768 0.0216364C7.65623 0.0187273 7.64491 0.0155455 7.63327 0.0132273C7.62168 0.0109091 7.60995 0.00959091 7.59836 0.00790909C7.588 0.00640909 7.57782 0.00445455 7.56732 0.00340909C7.54609 0.00131818 7.52482 0.000318182 7.50359 0.000181818C7.50245 0.000181818 7.50127 0 7.50014 0C7.49864 0 7.49714 0.000227273 7.49559 0.000227273C7.47468 0.000363636 7.45377 0.00131818 7.433 0.00340909C7.42236 0.00445455 7.41195 0.00640909 7.4015 0.00795455C7.39 0.00963636 7.37845 0.0109545 7.36705 0.0131818C7.35527 0.0155 7.34386 0.0187273 7.33232 0.0216818C7.32227 0.0242273 7.31223 0.0264091 7.30232 0.0294091C7.29109 0.0328182 7.28023 0.037 7.26923 0.0409545C7.25923 0.0445455 7.24918 0.0478182 7.23927 0.0519091C7.22905 0.0561364 7.21932 0.0610909 7.20936 0.0658182C7.19914 0.0706364 7.18882 0.0751818 7.17877 0.0805455C7.16932 0.0856364 7.16032 0.0914091 7.15109 0.0969091C7.14118 0.102818 7.13118 0.108409 7.12159 0.114864C7.11145 0.121591 7.102 0.129091 7.09227 0.136409C7.08418 0.142455 7.07586 0.148091 7.06795 0.154591C7.05136 0.168182 7.03546 0.182636 7.02023 0.197727C7.0195 0.198455 7.01873 0.199045 7.018 0.199727L3.83609 3.38141C3.56986 3.64768 3.56982 4.07936 3.83609 4.34564C4.10232 4.61195 4.53405 4.61186 4.80027 4.34568Z" fill="#F8F9FA"/>
<path d="M14.3182 13.6364H0.681818C0.305273 13.6364 0 13.9416 0 14.3182C0 14.6947 0.305273 15 0.681818 15H14.3182C14.6947 15 15 14.6947 15 14.3182C15 13.9416 14.6947 13.6364 14.3182 13.6364Z" fill="#F8F9FA"/>
</svg>
