<svg width="19" height="20" viewBox="0 0 19 20" fill="none" xmlns="http://www.w3.org/2000/svg">
<path d="M9.49986 11.2652C3.48118 11.2652 0.166504 14.108 0.166504 19.2701C0.166504 19.6732 0.493774 20 0.89757 20H18.1021C18.5059 20 18.8332 19.6732 18.8332 19.2701C18.8332 14.1083 15.5185 11.2652 9.49986 11.2652ZM1.65524 18.5402C1.9428 14.6805 4.57829 12.7251 9.49986 12.7251C14.4214 12.7251 17.057 14.6805 17.3448 18.5402H1.65524Z" fill="#F8F9FA"/>
<path d="M9.49986 0C6.73518 0 4.65043 2.12336 4.65043 4.93895C4.65043 7.837 6.82587 10.1944 9.49986 10.1944C12.1738 10.1944 14.3493 7.837 14.3493 4.93918C14.3493 2.12336 12.2645 0 9.49986 0ZM9.49986 8.73481C7.63197 8.73481 6.11257 7.03211 6.11257 4.93918C6.11257 2.92313 7.53718 1.45984 9.49986 1.45984C11.4311 1.45984 12.8872 2.95547 12.8872 4.93918C12.8872 7.03211 11.3677 8.73481 9.49986 8.73481Z" fill="#F8F9FA"/>
</svg>
